<svg width="72" height="72" viewBox="0 0 72 72" fill="none" xmlns="http://www.w3.org/2000/svg">
<path d="M5.3208 51.7536L20.2464 66.6792C21.2846 67.7164 22.6921 68.299 24.1596 68.299C25.6271 68.299 27.0346 67.7164 28.0728 66.6792L35.9928 58.7592L43.9128 66.6792C44.4259 67.1945 45.0357 67.6034 45.7073 67.8823C46.3788 68.1613 47.0988 68.305 47.826 68.305C48.5532 68.305 49.2732 68.1613 49.9447 67.8823C50.6163 67.6034 51.2261 67.1945 51.7392 66.6792L66.6792 51.7536C67.1945 51.2405 67.6034 50.6307 67.8824 49.9591C68.1613 49.2876 68.305 48.5676 68.305 47.8404C68.305 47.1132 68.1613 46.3932 67.8824 45.7216C67.6034 45.0501 67.1945 44.4403 66.6792 43.9272L58.7592 36.0072L66.6792 28.0872C67.7164 27.049 68.299 25.6415 68.299 24.174C68.299 22.7065 67.7164 21.299 66.6792 20.2608L51.7536 5.32079C51.2404 4.80442 50.6301 4.39463 49.9579 4.115C49.2857 3.83536 48.5648 3.69141 47.8368 3.69141C47.1088 3.69141 46.3879 3.83536 45.7157 4.115C45.0435 4.39463 44.4332 4.80442 43.92 5.32079L36 13.2408L28.08 5.32079C27.5669 4.8055 26.9571 4.39663 26.2855 4.11764C25.614 3.83864 24.894 3.69502 24.1668 3.69502C23.4396 3.69502 22.7196 3.83864 22.0481 4.11764C21.3765 4.39663 20.7667 4.8055 20.2536 5.32079L5.3208 20.2464C4.80615 20.7606 4.39789 21.3712 4.11934 22.0432C3.84079 22.7153 3.69742 23.4357 3.69742 24.1632C3.69742 24.8907 3.84079 25.6111 4.11934 26.2831C4.39789 26.9552 4.80615 27.5658 5.3208 28.08L13.2408 36L5.3208 43.92C4.80615 44.4342 4.39789 45.0448 4.11934 45.7168C3.84079 46.3889 3.69742 47.1093 3.69742 47.8368C3.69742 48.5643 3.84079 49.2847 4.11934 49.9567C4.39789 50.6288 4.80615 51.2394 5.3208 51.7536ZM65.664 44.9424C66.4203 45.7102 66.8442 46.7447 66.8442 47.8224C66.8442 48.9001 66.4203 49.9346 65.664 50.7024L50.7384 65.664C49.9706 66.4203 48.9361 66.8442 47.8584 66.8442C46.7807 66.8442 45.7462 66.4203 44.9784 65.664L37.0584 57.744L38.8008 56.0016L44.2944 61.4952C45.3338 62.5328 46.7425 63.1156 48.2112 63.1156C49.6799 63.1156 51.0886 62.5328 52.128 61.4952L61.488 52.0848C62.5256 51.0454 63.1084 49.6367 63.1084 48.168C63.1084 46.6993 62.5256 45.2906 61.488 44.2512L55.9944 38.7576L57.7368 37.0152L65.664 44.9424ZM39.744 54.9792L54.9792 39.7728L60.48 45.2664C61.2472 46.0357 61.6781 47.0779 61.6781 48.1644C61.6781 49.2509 61.2472 50.2931 60.48 51.0624L51.0624 60.48C50.2931 61.2472 49.2509 61.6781 48.1644 61.6781C47.0779 61.6781 46.0357 61.2472 45.2664 60.48L39.744 54.9792ZM6.336 27.0576C5.5797 26.2898 5.15577 25.2553 5.15577 24.1776C5.15577 23.0999 5.5797 22.0654 6.336 21.2976L21.2616 6.33599C22.0285 5.57796 23.0633 5.15284 24.1416 5.15284C25.2199 5.15284 26.2547 5.57796 27.0216 6.33599L34.9416 14.256L33.1992 15.9984L27.7488 10.512C26.7094 9.47437 25.3007 8.89159 23.832 8.89159C22.3633 8.89159 20.9546 9.47437 19.9152 10.512L10.512 19.9152C9.47438 20.9546 8.8916 22.3633 8.8916 23.832C8.8916 25.3007 9.47438 26.7094 10.512 27.7488L16.0056 33.2424L14.2632 34.9848L6.336 27.0576ZM32.256 17.0208L24.624 24.624L17.0208 32.2272L11.52 26.7336C10.7528 25.9643 10.3219 24.9221 10.3219 23.8356C10.3219 22.7491 10.7528 21.7069 11.52 20.9376L20.9376 11.52C21.7079 10.7545 22.7497 10.3249 23.8356 10.3249C24.9215 10.3249 25.9634 10.7545 26.7336 11.52L32.256 17.0208ZM14.7744 36.5112L44.9424 6.33599C45.7093 5.57796 46.7441 5.15284 47.8224 5.15284C48.9007 5.15284 49.9355 5.57796 50.7024 6.33599L65.664 21.2616C66.4203 22.0294 66.8442 23.0639 66.8442 24.1416C66.8442 25.2193 66.4203 26.2538 65.664 27.0216L57.2256 35.4888L54.468 38.2464L38.2464 54.468L35.4888 57.2256L27.0576 65.664C26.2898 66.4203 25.2553 66.8442 24.1776 66.8442C23.0999 66.8442 22.0654 66.4203 21.2976 65.664L6.336 50.7384C5.5797 49.9706 5.15577 48.9361 5.15577 47.8584C5.15577 46.7807 5.5797 45.7462 6.336 44.9784L14.7744 36.5112Z" fill="#40B37C"/>
<path d="M19.9152 61.488C20.9546 62.5256 22.3633 63.1084 23.832 63.1084C25.3007 63.1084 26.7094 62.5256 27.7488 61.488L61.488 27.7488C62.5256 26.7094 63.1084 25.3007 63.1084 23.832C63.1084 22.3633 62.5256 20.9546 61.488 19.9152L52.0848 10.512C51.0454 9.47438 49.6367 8.8916 48.168 8.8916C46.6993 8.8916 45.2906 9.47438 44.2512 10.512L10.512 44.2512C9.47438 45.2906 8.8916 46.6993 8.8916 48.168C8.8916 49.6367 9.47438 51.0454 10.512 52.0848L19.9152 61.488ZM11.52 45.2664L45.2664 11.52C46.0367 10.7545 47.0785 10.3249 48.1644 10.3249C49.2503 10.3249 50.2922 10.7545 51.0624 11.52L60.48 20.9376C61.2472 21.7069 61.6781 22.7491 61.6781 23.8356C61.6781 24.9221 61.2472 25.9643 60.48 26.7336L26.7336 60.48C25.9643 61.2472 24.9221 61.6781 23.8356 61.6781C22.7491 61.6781 21.7069 61.2472 20.9376 60.48L11.52 51.0624C10.7528 50.2931 10.3219 49.2509 10.3219 48.1644C10.3219 47.0779 10.7528 46.0357 11.52 45.2664Z" fill="#40B37C"/>
<path d="M36 30.4992C36.6046 30.4981 37.1902 30.2874 37.6569 29.9031C38.1236 29.5187 38.4426 28.9845 38.5596 28.3913C38.6766 27.7981 38.5843 27.1827 38.2985 26.6499C38.0126 26.1171 37.5509 25.7 36.9919 25.4694C36.433 25.2389 35.8114 25.2093 35.2331 25.3856C34.6548 25.562 34.1555 25.9333 33.8203 26.4365C33.4851 26.9397 33.3347 27.5435 33.3947 28.1452C33.4548 28.7468 33.7216 29.309 34.1496 29.736C34.3925 29.9788 34.6811 30.1713 34.9986 30.3023C35.3162 30.4333 35.6565 30.5002 36 30.4992ZM35.172 27.0576C35.3363 26.8939 35.5455 26.7826 35.773 26.7378C36.0005 26.6929 36.2362 26.7164 36.4504 26.8054C36.6645 26.8943 36.8475 27.0448 36.9763 27.2377C37.105 27.4306 37.1737 27.6573 37.1737 27.8892C37.1737 28.1211 37.105 28.3478 36.9763 28.5407C36.8475 28.7336 36.6645 28.884 36.4504 28.973C36.2362 29.0619 36.0005 29.0855 35.773 29.0406C35.5455 28.9957 35.3363 28.8844 35.172 28.7208C34.9526 28.4996 34.8295 28.2007 34.8295 27.8892C34.8295 27.5776 34.9526 27.2787 35.172 27.0576ZM44.1072 38.6136C44.7121 38.6142 45.2985 38.4049 45.7664 38.0215C46.2343 37.6381 46.5547 37.1042 46.673 36.511C46.7912 35.9177 46.7001 35.3018 46.415 34.7683C46.1299 34.2347 45.6686 33.8166 45.1097 33.5852C44.5508 33.3538 43.9289 33.3234 43.3501 33.4992C42.7713 33.6751 42.2714 34.0462 41.9357 34.5494C41.5999 35.0526 41.4492 35.6567 41.509 36.2587C41.5689 36.8606 41.8357 37.4232 42.264 37.8504C42.7547 38.3365 43.4165 38.6105 44.1072 38.6136ZM43.2792 35.172C43.4431 35.0073 43.6522 34.895 43.88 34.8493C44.1078 34.8036 44.3441 34.8265 44.5588 34.9152C44.7736 35.0039 44.9572 35.1543 45.0864 35.3474C45.2156 35.5405 45.2845 35.7676 45.2845 36C45.2845 36.2323 45.2156 36.4594 45.0864 36.6525C44.9572 36.8456 44.7736 36.9961 44.5588 37.0847C44.3441 37.1734 44.1078 37.1963 43.88 37.1506C43.6522 37.1049 43.4431 36.9926 43.2792 36.828C43.0603 36.608 42.9373 36.3103 42.9373 36C42.9373 35.6896 43.0603 35.3919 43.2792 35.172ZM27.8928 38.6136C28.4974 38.6125 29.083 38.4018 29.5497 38.0175C30.0164 37.6331 30.3354 37.0989 30.4524 36.5057C30.5694 35.9125 30.4771 35.2971 30.1913 34.7643C29.9054 34.2315 29.4437 33.8144 28.8847 33.5838C28.3258 33.3533 27.7042 33.3237 27.1259 33.5C26.5476 33.6763 26.0483 34.0477 25.7131 34.5509C25.3779 35.0541 25.2275 35.6579 25.2875 36.2596C25.3476 36.8612 25.6144 37.4234 26.0424 37.8504C26.5344 38.3389 27.1995 38.6132 27.8928 38.6136ZM27.0576 35.172C27.2215 35.0073 27.4306 34.895 27.6584 34.8493C27.8862 34.8036 28.1225 34.8265 28.3372 34.9152C28.552 35.0039 28.7356 35.1543 28.8648 35.3474C28.994 35.5405 29.0629 35.7676 29.0629 36C29.0629 36.2323 28.994 36.4594 28.8648 36.6525C28.7356 36.8456 28.552 36.9961 28.3372 37.0847C28.1225 37.1734 27.8862 37.1963 27.6584 37.1506C27.4306 37.1049 27.2215 36.9926 27.0576 36.828C26.8404 36.6071 26.7187 36.3097 26.7187 36C26.7187 35.6902 26.8404 35.3928 27.0576 35.172ZM34.1496 42.264C33.7847 42.6297 33.5365 43.0955 33.4362 43.6023C33.3358 44.1091 33.388 44.6342 33.586 45.1114C33.784 45.5886 34.119 45.9964 34.5487 46.2833C34.9783 46.5702 35.4834 46.7234 36 46.7234C36.5167 46.7234 37.0217 46.5702 37.4514 46.2833C37.881 45.9964 38.216 45.5886 38.414 45.1114C38.612 44.6342 38.6642 44.1091 38.5639 43.6023C38.4636 43.0955 38.2153 42.6297 37.8504 42.264C37.3591 41.7742 36.6937 41.4991 36 41.4991C35.3063 41.4991 34.6409 41.7742 34.1496 42.264ZM36.828 44.9424C36.6066 45.1577 36.3092 45.277 36.0004 45.2745C35.6915 45.272 35.3961 45.1478 35.1782 44.929C34.9603 44.7101 34.8375 44.4142 34.8363 44.1054C34.8351 43.7965 34.9558 43.4997 35.172 43.2792C35.3929 43.0619 35.6902 42.9402 36 42.9402C36.3098 42.9402 36.6072 43.0619 36.828 43.2792C36.9375 43.3882 37.0244 43.5178 37.0837 43.6605C37.143 43.8032 37.1735 43.9562 37.1735 44.1108C37.1735 44.2653 37.143 44.4183 37.0837 44.561C37.0244 44.7037 36.9375 44.8333 36.828 44.9424ZM34.1496 34.1496C33.7847 34.5153 33.5365 34.9811 33.4362 35.4879C33.3358 35.9947 33.388 36.5198 33.586 36.997C33.784 37.4742 34.119 37.882 34.5487 38.1689C34.9783 38.4558 35.4834 38.609 36 38.609C36.5167 38.609 37.0217 38.4558 37.4514 38.1689C37.881 37.882 38.216 37.4742 38.414 36.997C38.612 36.5198 38.6642 35.9947 38.5639 35.4879C38.4636 34.9811 38.2153 34.5153 37.8504 34.1496C37.3582 33.6615 36.6931 33.3877 36 33.3877C35.3069 33.3877 34.6418 33.6615 34.1496 34.1496ZM36.828 36.828C36.6641 36.9926 36.455 37.1049 36.2272 37.1506C35.9994 37.1963 35.7631 37.1734 35.5484 37.0847C35.3336 36.9961 35.15 36.8456 35.0208 36.6525C34.8917 36.4594 34.8227 36.2323 34.8227 36C34.8227 35.7676 34.8917 35.5405 35.0208 35.3474C35.15 35.1543 35.3336 35.0039 35.5484 34.9152C35.7631 34.8265 35.9994 34.8036 36.2272 34.8493C36.455 34.895 36.6641 35.0073 36.828 35.172C36.9373 35.2804 37.024 35.4094 37.0832 35.5515C37.1424 35.6936 37.1729 35.846 37.1729 36C37.1729 36.1539 37.1424 36.3063 37.0832 36.4484C37.024 36.5906 36.9373 36.7195 36.828 36.828Z" fill="#40B37C"/>
</svg>
