<?xml version="1.0" encoding="UTF-8" standalone="no"?>
<svg
   width="72"
   height="72"
   viewBox="0 0 72 72"
   fill="none"
   version="1.1"
   id="svg6"
   xmlns="http://www.w3.org/2000/svg"
   xmlns:svg="http://www.w3.org/2000/svg">
  <defs
     id="defs6" />
  <path
     id="path1"
     style="fill:#40b37c;fill-opacity:1;stroke:none;stroke-width:0.4;stroke-dasharray:none;stroke-opacity:1"
     d="M 18.130859,7.1621094 C 13.763589,7.2880874 9.2042231,8.6363505 6.1546338,11.914367 2.8321617,15.340186 1.795463,20.342553 2.042048,24.973345 c 0.2830652,3.099064 1.4101343,6.101242 3.0173944,8.751734 1.4591948,2.294098 3.1301869,4.474641 5.0564226,6.395923 8.162872,7.803219 16.260231,15.677185 24.397912,23.507607 0.491372,0.367586 0.831887,1.008502 1.412004,1.222953 0.628084,9.97e-4 0.917065,-0.755289 1.397331,-1.06582 8.163564,-7.882171 16.369041,-15.722478 24.506423,-23.630798 3.662093,-3.781177 6.997538,-8.272096 7.939772,-13.5675 C 70.256413,23.4353 69.95905,20.152816 68.970352,17.123413 67.594779,12.846027 64.008705,9.437667 59.727168,8.1336881 56.878196,7.2584383 53.827913,6.9354484 50.865404,7.2923822 c -3.291425,0.4869617 -6.2661,2.1392326 -8.90056,4.1041018 -0.317376,0.229483 -0.965132,0.705814 -1.395071,1.047962 C 38.927517,13.700113 37.474756,15.174729 36,16.617188 34.120667,14.734184 32.184576,12.894546 29.998047,11.367188 29.692134,11.162357 29.064554,10.704824 28.621685,10.419017 25.578819,8.2920968 21.884294,6.9115606 18.130859,7.1621094 Z m 1.082032,1.1230468 c 3.733949,0.06262 7.212667,1.8454818 10.160156,4.0175778 2.288879,1.720872 4.422776,3.658201 6.337891,5.779297 0.781943,0.290613 1.085352,-0.693678 1.591165,-1.075857 2.338497,-2.399146 4.905475,-4.623659 7.793125,-6.337941 2.727768,-1.5735723 5.858491,-2.6553201 9.045836,-2.3459874 4.151456,0.139807 8.476953,1.5795397 11.284844,4.7624864 2.757845,3.303687 3.635341,7.809345 3.38003,12.016672 -0.438424,5.132124 -3.45732,9.60338 -6.865136,13.288712 -2.989748,3.090911 -6.17262,5.990073 -9.24164,9.002196 C 47.132706,52.756913 41.566868,58.122154 36,63.486328 27.605678,55.377778 19.174037,47.306709 10.804268,39.173456 7.2268393,35.494333 4.0019237,31.055884 3.2695312,25.851562 2.8208169,21.527272 3.6344423,16.874619 6.3300781,13.367188 9.098377,10.023528 13.51883,8.4832754 17.757395,8.3281952 c 0.484335,-0.034515 0.970316,-0.031042 1.455496,-0.043039 z" />
  <path
     d="m 49.2066,31.7461 c -0.3082,-0.8248 -0.8264,-1.4212 -1.4988,-1.7244 -0.3086,-0.1388 -0.6325,-0.2092 -0.9625,-0.2092 -1.408,0 -2.8386,1.3125 -3.56,3.2663 -0.8929,2.4202 -0.3738,4.7907 1.2074,5.5141 0.318,0.1456 0.6585,0.2196 1.0121,0.2196 1.4341,0 2.8917,-1.2037 3.6268,-2.995 0.5555,-1.3559 0.6209,-2.8777 0.175,-4.0714 z m -1.2384,3.5715 c -0.551,1.3288 -1.6168,2.2569 -2.5919,2.2569 -0.1975,0 -0.3858,-0.04 -0.5602,-0.1191 -0.9929,-0.4496 -1.2559,-2.1838 -0.5989,-3.9482 0.5466,-1.4637 1.5783,-2.4859 2.5089,-2.4859 0.1765,0 0.3501,0.0375 0.5161,0.1117 0.4838,0.2156 0.7469,0.6828 0.8825,1.0367 0.3452,0.9005 0.2867,2.0773 -0.1565,3.1479 z"
     fill="#40b37c"
     id="path2" />
  <path
     d="m 28.8148,33.0788 c -0.7214,-1.9538 -2.152,-3.2663 -3.56,-3.2663 -0.33,0 -0.654,0.0704 -0.9626,0.2092 -0.6725,0.3032 -1.1906,0.8996 -1.4988,1.7244 -0.4459,1.1937 -0.3805,2.7155 0.1751,4.0714 0.7351,1.7913 2.1927,2.995 3.6268,2.995 0.3535,0 0.694,-0.074 1.012,-0.2196 1.5812,-0.7234 2.1003,-3.0939 1.2075,-5.5141 z m -1.6309,4.3765 c -0.1743,0.0791 -0.3628,0.1191 -0.5602,0.1191 -0.9751,0 -2.0409,-0.928 -2.5919,-2.2569 -0.4432,-1.0706 -0.5017,-2.2474 -0.1565,-3.1479 0.1356,-0.3539 0.3987,-0.8211 0.8825,-1.0368 0.166,-0.0742 0.3396,-0.1116 0.5161,-0.1116 0.9305,0 1.9622,1.0222 2.5089,2.4859 0.6571,1.7645 0.394,3.4987 -0.5989,3.9482 z"
     fill="#40b37c"
     id="path3" />
  <path
     d="m 31.9463,32.8079 c 0.1304,0.0057 0.262,0.0021 0.3911,-0.0106 0.7585,-0.0745 1.4443,-0.4637 1.9833,-1.1256 0.8699,-1.0681 1.1114,-2.7404 0.9282,-4.4606 -0.2799,-2.6509 -1.6768,-4.6295 -3.5537,-4.7111 0,0 -0.268,6e-4 -0.4043,0.0136 -0.828,0.0818 -1.5807,0.5121 -2.1767,1.2442 -0.8642,1.0617 -1.2795,2.6416 -1.1111,4.226 0.2767,2.6211 2.0088,4.7399 3.9432,4.8241 z m -1.9195,-8.351 c 0.2758,-0.3332 0.7389,-0.7437 1.3795,-0.8069 0.0795,-0.008 0.1595,-0.0103 0.2393,-0.0069 1.2802,0.0557 2.2401,1.6362 2.4565,3.6863 0.1509,1.4168 -0.0104,2.8164 -0.6923,3.6407 -0.3427,0.4147 -0.7422,0.6472 -1.1869,0.6908 -0.0754,0.0073 -0.1513,0.0094 -0.227,0.0062 -1.354,-0.059 -2.6307,-1.7642 -2.8458,-3.8016 -0.1384,-1.3029 0.1894,-2.5772 0.8767,-3.4086 z"
     fill="#40b37c"
     id="path4" />
  <path
     d="m 36,34.875 c -4.5,0 -9,5.349 -9,10.4856 0,1.5326 0.7687,2.7654 1.5235,3.2707 0.9322,0.6237 1.5892,0.8687 2.9557,0.8687 1.6237,0 2.0619,-0.568 2.822,-1.0691 0.5498,-0.3623 1.0246,-0.6754 1.6989,-0.6754 0.6742,0 1.149,0.3131 1.6987,0.6754 0.7602,0.5011 1.1983,1.0691 2.8221,1.0691 1.3664,0 2.0234,-0.245 2.9556,-0.8687 C 44.2313,48.126 45,46.8932 45,45.3606 45,40.224 40.5,34.875 36,34.875 Z m 6.888,12.7108 c -0.7709,0.5159 -1.221,0.6875 -2.3671,0.6875 -1.0002,0 -1.3095,-0.225 -1.8219,-0.5983 -0.1299,-0.0945 -0.2643,-0.1924 -0.4181,-0.2937 -0.606,-0.3995 -1.293,-0.8524 -2.2808,-0.8524 -0.9878,0 -1.6749,0.4529 -2.2808,0.8522 -0.1539,0.1014 -0.2883,0.1994 -0.4182,0.2939 -0.5123,0.3733 -0.8216,0.5983 -1.8218,0.5983 -1.1461,0 -1.5963,-0.1716 -2.3673,-0.6875 -0.3967,-0.2655 -0.987,-1.0772 -0.987,-2.2252 0,-2.1289 0.9406,-4.5163 2.516,-6.386 0.7654,-0.9085 1.6535,-1.6594 2.5682,-2.1716 C 34.1517,36.2754 35.0906,36 36,36 c 0.9094,0 1.8483,0.2754 2.7908,0.803 0.9147,0.5122 1.8028,1.2631 2.5681,2.1716 1.5755,1.8696 2.5161,4.2571 2.5161,6.386 0,1.148 -0.5903,1.9597 -0.987,2.2252 z"
     fill="#40b37c"
     id="path5" />
  <path
     d="m 39.676,32.7843 c 0.1291,0.0128 0.2608,0.0163 0.3912,0.0106 1.9344,-0.0841 3.6665,-2.203 3.9432,-4.8239 0.1684,-1.5844 -0.2471,-3.1643 -1.1112,-4.2261 -0.596,-0.7321 -1.3207,-1.141 -2.1488,-1.2228 -0.1363,-0.0131 -0.4321,-0.022 -0.4321,-0.022 -1.8769,0.0817 -3.2738,2.0472 -3.5538,4.6981 -0.1831,1.7203 0.0584,3.3924 0.9282,4.4605 0.5391,0.662 1.2249,1.0512 1.9833,1.1256 z m -1.7645,-5.4678 c 0.2163,-2.05 1.1763,-3.6306 2.4565,-3.6863 0.0798,-0.0034 0.1598,-0.0011 0.2393,0.0069 0.6405,0.0631 1.1037,0.4736 1.3795,0.8069 0.6872,0.8314 1.015,2.1057 0.8766,3.4087 -0.2151,2.0374 -1.4917,3.7426 -2.8458,3.8015 -0.0757,0.0033 -0.1516,0.0012 -0.227,-0.0061 -0.4447,-0.0436 -0.8443,-0.2761 -1.187,-0.6908 -0.6816,-0.8244 -0.843,-2.224 -0.6921,-3.6408 z"
     fill="#40b37c"
     id="path6" />
</svg>
