<?xml version="1.0" encoding="UTF-8" standalone="no"?>
<!-- Uploaded to: SVG Repo, www.svgrepo.com, Generator: SVG Repo Mixer Tools -->

<svg
   fill="#000000"
   height="800"
   width="800"
   version="1.1"
   id="Layer_1"
   viewBox="0 0 512 512"
   xml:space="preserve"
   xmlns="http://www.w3.org/2000/svg"
   xmlns:svg="http://www.w3.org/2000/svg"><defs
   id="defs2" />
<g
   id="g2">
	<g
   id="g1">
		<path
   d="M 454.4,90.667 H 54.613 C 20.907,90.667 0,110.293 0,141.76 v 228.373 c 0,30.613 21.333,51.2 53.12,51.2 H 454.4 c 32.853,0 57.6,-21.973 57.6,-51.2 V 141.76 C 512,110.72 489.387,90.667 454.4,90.667 Z M 54.72,112 H 454.4 c 5.973,0 16.427,1.067 24.533,6.4 L 264.853,290.56 32.427,117.653 C 37.867,114.027 45.227,112 54.72,112 Z M 490.667,370.133 C 490.667,389.76 472.427,400 454.4,400 H 53.12 C 33.173,400 21.333,388.8 21.333,370.133 V 141.76 c 0,-1.813 0.213,-3.733 0.427,-5.547 l 237.013,176.32 c 3.947,2.88 9.28,2.773 13.013,-0.213 l 218.24,-175.467 c 0.32,1.6 0.533,3.307 0.64,5.013 z"
   id="path1"
   style="fill:#40b37c;fill-opacity:1" />
	</g>
</g>
</svg>
