<svg width="25" height="26" viewBox="0 0 25 26" fill="none" xmlns="http://www.w3.org/2000/svg">
<g clip-path="url(#clip0_134_146)">
<path d="M21.2863 0.836426H3.0409C1.36384 0.836426 0 2.20027 0 3.87732V22.1227C0 23.7998 1.36384 25.1636 3.0409 25.1636H21.2863C22.9633 25.1636 24.3272 23.7998 24.3272 22.1227V3.87732C24.3272 2.20027 22.9633 0.836426 21.2863 0.836426Z" fill="#1976D2"/>
<path fill-rule="evenodd" clip-rule="evenodd" d="M20.5261 12.9999H16.7249V9.95905C16.7249 9.11976 17.4061 9.19883 18.2454 9.19883H19.7658V5.39771H16.7249C15.5152 5.39771 14.355 5.87827 13.4996 6.73369C12.6442 7.58911 12.1636 8.74931 12.1636 9.95905V12.9999H9.1227V16.8011H12.1636V25.1635H16.7249V16.8011H19.0056L20.5261 12.9999Z" fill="#FAFAFA"/>
</g>
<defs>
<clipPath id="clip0_134_146">
<rect width="24.3272" height="24.3272" fill="white" transform="translate(0 0.836426)"/>
</clipPath>
</defs>
</svg>
