<svg width="72" height="72" viewBox="0 0 72 72" fill="none" xmlns="http://www.w3.org/2000/svg">
<path d="M59.5609 13.5963C56.7367 10.7718 52.5001 9.80041 48.5044 11.0603L36 15.0035L23.4956 11.0603C19.4998 9.80013 15.2633 10.772 12.4391 13.5963L4.17658 21.8582C-0.101654 26.137 0.117159 33.3251 4.66511 37.8817C9.65814 42.8843 15.0432 48.2782 19.5327 52.767C19.325 53.5494 19.3248 54.3725 19.5321 55.155C19.7395 55.9376 20.1473 56.6525 20.7152 57.2294L20.7754 57.2898C21.2048 57.7162 21.7142 58.0536 22.2744 58.2825C22.8346 58.5114 23.4346 58.6273 24.0397 58.6236C24.447 58.6231 24.8527 58.5721 25.2474 58.4717L25.7255 58.9474C26.4333 59.6556 27.3327 60.1414 28.313 60.3448C29.1558 61.0863 30.2421 61.4913 31.3646 61.4826C31.4216 61.4826 31.4787 61.4816 31.536 61.4797C32.8295 61.4301 34.0556 60.8899 34.965 59.9688L36 58.9327L37.0361 59.9688C37.9456 60.8899 39.1717 61.4301 40.4651 61.4797C40.5225 61.4816 40.5795 61.4826 40.6364 61.4826C41.7562 61.4907 42.8399 61.0873 43.6819 60.3492C44.6636 60.1425 45.5643 59.6556 46.2749 58.9474L46.7553 58.4693C47.5387 58.677 48.3626 58.6775 49.1462 58.4707C49.9298 58.2639 50.6462 57.857 51.2251 57.2898L51.2843 57.2303C51.8505 56.6525 52.2571 55.9377 52.4642 55.1556C52.6712 54.3736 52.6717 53.5512 52.4655 52.7689C56.9138 48.322 62.2307 42.9962 67.3349 37.8821C71.8829 33.3258 72.1021 26.1374 67.8229 21.8586L59.5609 13.5963ZM22.3668 55.6994L22.3067 55.6392C22.174 55.5062 22.0585 55.3571 21.9628 55.1954L22.8123 56.0438C22.65 55.9481 22.5003 55.8323 22.3668 55.6992V55.6994ZM33.3729 58.3782C33.2317 58.5189 33.0769 58.6452 32.9108 58.7554C33.3834 58.1896 33.7101 57.5166 33.8624 56.7953L34.4091 57.3421L33.3729 58.3782ZM49.693 55.6397L49.6336 55.699C48.6695 56.6633 47.0194 56.582 45.9551 55.5179L28.6778 38.2403C28.5738 38.1339 28.4497 38.0492 28.3127 37.9911C28.1757 37.933 28.0286 37.9027 27.8798 37.9018C27.731 37.901 27.5835 37.9297 27.4459 37.9862C27.3082 38.0428 27.1832 38.1261 27.078 38.2313C26.9728 38.3365 26.8895 38.4616 26.8329 38.5992C26.7763 38.7368 26.7477 38.8843 26.7485 39.0331C26.7493 39.1819 26.7797 39.3291 26.8378 39.466C26.8958 39.603 26.9805 39.7271 27.0869 39.8312L42.1227 54.8669L42.1303 54.8748C42.6477 55.3816 42.9528 56.0665 42.9835 56.7901C43.0015 57.1154 42.9508 57.4409 42.8345 57.7453C42.7182 58.0496 42.539 58.326 42.3086 58.5564C42.0782 58.7868 41.8018 58.966 41.4974 59.0823C41.193 59.1986 40.8675 59.2493 40.5422 59.2312C39.8186 59.2006 39.1337 58.8956 38.6269 58.3782L36.7953 56.5467L23.5835 43.335C23.3726 43.124 23.0864 43.0055 22.788 43.0055C22.4896 43.0055 22.2035 43.124 21.9925 43.335C21.7815 43.546 21.663 43.8321 21.663 44.1305C21.663 44.4289 21.7815 44.715 21.9925 44.926L30.8544 53.7879L30.8605 53.794C31.3778 54.3008 31.6828 54.9856 31.7135 55.7093C31.7297 56.0336 31.6784 56.3579 31.5627 56.6614C31.447 56.9648 31.2696 57.241 31.0416 57.4723L30.9853 57.5285C30.0235 58.4901 28.3759 58.4114 27.3125 57.353C27.0024 57.0443 26.6775 56.7209 26.3378 56.3827L26.3321 56.377C25.0062 55.0558 23.4696 53.5214 21.7927 51.8453C21.6989 51.6898 21.5685 51.5595 21.413 51.4656C16.8673 46.9215 11.3583 41.4033 6.25741 36.2922C2.58513 32.613 2.36561 26.8515 5.76803 23.449L14.03 15.1875C16.2587 12.959 19.6262 12.1998 22.8191 13.2065L32.2594 16.1831L26.986 17.8461C26.7407 17.9234 26.5294 18.0824 26.3871 18.2966C26.2449 18.5108 26.1803 18.7673 26.2041 19.0233L26.3328 20.4041C26.3648 21.2615 26.5721 22.1033 26.942 22.8774C27.3119 23.6516 27.8365 24.3418 28.4835 24.9054C29.1466 25.4781 29.9205 25.9081 30.7571 26.1686C31.5937 26.4291 32.475 26.5145 33.346 26.4195L34.0955 26.3459L35.2051 27.4569L50.6505 42.9242C51.713 43.9882 51.7936 45.6383 50.8301 46.6011L50.8241 46.6072C49.8829 47.5422 48.2942 47.4861 47.231 46.4976C45.4781 44.7446 43.5669 42.8344 41.7516 41.0203C37.6816 36.9519 34.1666 33.4383 33.8269 33.0963C33.6164 32.8863 33.3312 32.7682 33.0338 32.7679C32.7364 32.7676 32.4509 32.885 32.2399 33.0946C32.0288 33.3041 31.9093 33.5887 31.9075 33.8861C31.9057 34.1835 32.0218 34.4695 32.2303 34.6816C32.573 35.0268 36.0893 38.5416 40.1615 42.6116L45.5143 47.9622C45.5291 47.9789 45.5445 47.9953 45.5606 48.0113C45.5951 48.0461 45.6309 48.0801 45.6656 48.1137C47.1 49.5481 48.429 50.8764 49.5135 51.9609C50.5766 53.025 50.6575 54.675 49.693 55.6394V55.6397ZM65.7422 36.2922C60.831 41.2128 55.7218 46.3306 51.3806 50.6714C51.2926 50.5687 51.2012 50.4678 51.1039 50.3704C50.8043 50.0708 50.4861 49.7524 50.1521 49.4186C51.0112 49.2389 51.7993 48.813 52.4202 48.1927L52.4287 48.1844C54.2607 46.3434 54.1782 43.273 52.2422 41.3343L37.5891 26.6612L38.6016 25.6466C38.7654 25.4826 38.8745 25.272 38.9141 25.0435C38.9536 24.8151 38.9216 24.5801 38.8225 24.3705C38.7234 24.161 38.5619 23.9872 38.3603 23.8729C38.1586 23.7586 37.9265 23.7094 37.6958 23.732L33.1255 24.1802C32.5591 24.2441 31.9855 24.1907 31.4406 24.0232C30.8957 23.8558 30.3912 23.578 29.9583 23.207C29.5396 22.84 29.201 22.3906 28.9636 21.887C28.7262 21.3834 28.5951 20.8362 28.5784 20.2796C28.5784 20.2607 28.5763 20.2415 28.5746 20.2227L28.5276 19.7188L36.3171 17.2624L36.3211 17.2613L49.1802 13.2062C52.3724 12.1992 55.7404 12.9584 57.9693 15.1872L66.2312 23.449C69.6343 26.8515 69.4148 32.613 65.7422 36.2922Z" fill="#40B37C"/>
</svg>
