<?xml version="1.0" encoding="UTF-8" standalone="no"?>
<!-- Uploaded to: SVG Repo, www.svgrepo.com, Generator: SVG Repo Mixer Tools -->

<svg
   fill="#000000"
   version="1.1"
   id="Capa_1"
   width="800"
   height="800"
   viewBox="0 0 930.3 930.301"
   xml:space="preserve"
   xmlns="http://www.w3.org/2000/svg"
   xmlns:svg="http://www.w3.org/2000/svg"><defs
   id="defs4" />
<g
   id="g4">
	<g
   id="g3">
		<path
   d="M 701.709,518.301 694.31,523 c -2.5,1.6 -4.601,3.699 -6.101,6.1 l -31,48.701 c -9.6,15.1 -26.1,24.6 -44,25.398 l -57.7,2.5 c -2.899,0.102 -5.8,0.9 -8.3,2.201 l -8.1,4.199 -57.5,127.5 79.3,175.801 c 8,17.699 32.2,19.9 43.3,4 l 60.3,-86.6 c 6.801,-9.301 15.601,-14.201 21.4,-10.701 l 115.2,4 c 18.5,0.6 31.3,-18.4 23.7,-35.299 z"
   id="path1"
   style="fill:none;stroke:#40b37c;stroke-width:11.6288;stroke-dasharray:none;stroke-opacity:1" />
		<path
   d="m 470.61,640.801 c -8.8,0 -17.601,-2.102 -25.4,-6.201 l -14.399,-7.5 -36.9,-19.1 c -2.6,-1.301 -5.5,-2.1 -8.3,-2.199 l -57.7,-2.5 c -17.9,-0.801 -34.4,-10.301 -44,-25.4 l -31,-48.701 c -1.6,-2.5 -3.7,-4.6 -6.1,-6.1 l -15.9,-10.1 -125.4,278 c -7.5,16.6 4.7,35.301 22.7,35.301 0.3,0 0.6,0 0.9,0 l 115.2,-4 c 0.3,0 0.6,0 0.9,0 8.2,0 15.8,4 20.5,10.699 l 60.3,86.6 c 5,7.201 12.801,10.701 20.5,10.701 9.301,0 18.5,-5.102 22.801,-14.701 l 95.697,-212.2 31,-68.6 -0.1,0.1 c -7.799,3.799 -16.599,5.901 -25.299,5.901 z"
   id="path2"
   style="fill:none;stroke:#40b37c;stroke-width:11.6288;stroke-dasharray:none;stroke-opacity:1" />
		<path
   d="m 746.509,242.6 c -3.399,-6.5 -5.3,-13.6 -5.6,-20.9 l -2.5,-57.6 c -0.4,-8.2 -4.7,-15.6 -11.6,-20 l -48.7,-31 c -6.2,-3.9 -11.4,-9.2 -15.3,-15.3 l -31,-48.7 c -4.4,-6.9 -11.801,-11.2 -20,-11.6 l -57.7,-2.5 c -7.3,-0.3 -14.4,-2.2 -20.9,-5.6 l -51.3,-26.6 c -3.6,-1.9 -7.6,-2.8 -11.5,-2.8 -3.9,0 -7.9,0.9 -11.5,2.8 l -51.3,26.6 c -6.5,3.4 -13.601,5.3 -20.9,5.6 l -57.7,2.5 c -8.199,0.4 -15.6,4.7 -20,11.6 l -31,48.7 c -3.899,6.2 -9.2,11.4 -15.3,15.3 l -48.7,31 c -6.9,4.4 -11.2,11.8 -11.6,20 l -2.5,57.7 c -0.3,7.3 -2.2,14.4 -5.6,20.9 l -26.6,51.3 c -3.8,7.2 -3.8,15.8 0,23 l 26.6,51.3 c 3.4,6.5 5.3,13.6 5.6,20.899 l 2.5,57.7 c 0.4,8.2 4.7,15.601 11.6,20 l 3.6,2.299 12.8,8.102 12.8,8.1 19.5,12.4 c 6.2,3.898 11.4,9.199 15.3,15.299 l 31,48.701 c 4.4,6.898 11.801,11.199 20,11.6 l 57.7,2.5 c 7.3,0.299 14.4,2.199 20.9,5.6 l 3.1,1.6 48.101,25 c 3.6,1.9 7.6,2.801 11.5,2.801 3.899,0 7.899,-0.9 11.5,-2.801 l 33.899,-17.6 17.4,-9 c 1.3,-0.699 2.6,-1.301 4,-1.801 5.399,-2.199 11.1,-3.5 16.899,-3.799 l 1.301,-0.1 56.399,-2.5 c 8.2,-0.4 15.601,-4.701 20,-11.602 l 31,-48.699 c 3.9,-6.199 9.2,-11.4 15.3,-15.301 l 11,-7 37.601,-23.898 c 6.899,-4.401 11.2,-11.8 11.6,-20 l 2.5,-57.7 c 0.3,-7.3 2.2,-14.4 5.601,-20.9 l 26.6,-51.3 c 3.8,-7.2 3.8,-15.8 0,-23 z"
   id="path3"
   style="fill:none;stroke:#40b37c;stroke-width:11.6288;stroke-dasharray:none;stroke-opacity:1" />
	</g>
</g>
</svg>
