<?xml version="1.0" encoding="UTF-8"?>
<svg version="1.1" xmlns="http://www.w3.org/2000/svg" width="3454" height="2610">
<path d="M0 0 C5.36806359 4.29265853 7.90557229 10.0689088 10.9375 16.125 C11.94556253 18.10730619 12.9546752 20.0890787 13.96484375 22.0703125 C14.46363037 23.05016113 14.96241699 24.03000977 15.47631836 25.03955078 C24.93418607 43.41578918 37.89643068 62.44821534 57 72 C61.35831967 72.58264982 65.7431965 72.89323521 70.125 73.25 C71.33671875 73.36601563 72.5484375 73.48203125 73.796875 73.6015625 C80.71275643 74.15905185 85.83208163 74.36563227 92 71 C99.06824414 63.67729907 101.11992884 52.12554399 103.21484375 42.48828125 C103.42810303 41.5127832 103.6413623 40.53728516 103.86108398 39.53222656 C104.27939461 37.58788934 104.68439004 35.64062818 105.07446289 33.69042969 C106.43519433 27.26078806 107.99768157 22.63840104 113.0625 18.1875 C116.08729143 16.33359558 118.7668426 15.80319928 122.25 15.6875 C123.34054687 15.63142578 123.34054687 15.63142578 124.453125 15.57421875 C128.20453876 16.20137228 131.15156104 17.5216707 134 20 C135.73647501 22.76313673 136.78440783 25.68396683 137.875 28.75 C143.63934319 43.55986259 151.52063869 56.30272841 161 69 C161.60585937 69.87785156 162.21171875 70.75570312 162.8359375 71.66015625 C169.9033761 81.59770489 180.36613102 85.09887033 191.24633789 89.68359375 C206.92795476 96.30927556 219.60697981 105.32602876 232 117 C232.65226562 117.5878125 233.30453125 118.175625 233.9765625 118.78125 C246.16573984 130.21800898 254.87226038 145.01190466 262.9453125 159.48828125 C268.81448134 169.97912352 275.5081415 179.76565704 282.52734375 189.515625 C291.07663944 201.46927572 296.30702798 212.06765289 295 227 C293.5965463 232.83196821 291.40113996 238.22962954 288.8125 243.625 C286.05598852 249.66307277 285.36537274 255.28016889 286.875 261.75 C289.81717245 266.24979316 293.40468182 268.34067235 298 271 C299.6886418 271.9980707 301.37614246 272.99807461 303.0625 274 C303.90167969 274.495 304.74085937 274.99 305.60546875 275.5 C307.82172044 276.8883208 309.83001001 278.37416945 311.875 280 C321.47311589 287.2456365 331.8705059 290.37651652 343.37109375 293.37670898 C357.26048191 297.12419348 357.26048191 297.12419348 361.37792969 302.94946289 C366.00798707 311.09046931 365.14466157 320.91933464 365.12939453 329.98681641 C365.13114685 331.27247498 365.13289917 332.55813354 365.13470459 333.88275146 C365.13924178 337.39138 365.13750397 340.89997894 365.1343255 344.40860796 C365.13177941 348.09893398 365.13414598 351.78925761 365.13571167 355.47958374 C365.13752819 361.68154348 365.13514207 367.88349129 365.13037109 374.08544922 C365.12494389 381.22216714 365.12668198 388.35885642 365.1321975 395.49557364 C365.13676067 401.64962081 365.13736317 407.80365944 365.13475883 413.95770776 C365.13321173 417.62115914 365.13295846 421.28459715 365.13629532 424.94804764 C365.13976592 429.04432063 365.13493235 433.14054568 365.12939453 437.23681641 C365.13243088 439.02196152 365.13243088 439.02196152 365.13552856 440.84317017 C365.10748963 452.13084281 364.93314222 463.44735156 361.875 474.375 C361.65618164 475.17317139 361.43736328 475.97134277 361.21191406 476.79370117 C356.94073129 491.717664 350.0026406 510.81810894 336.04296875 519.08203125 C332.30087388 520.76346967 328.6459516 521.1961707 324.578125 521.53515625 C323.04091797 521.66567383 323.04091797 521.66567383 321.47265625 521.79882812 C319.87744141 521.9293457 319.87744141 521.9293457 318.25 522.0625 C317.17105469 522.15337891 316.09210938 522.24425781 314.98046875 522.33789062 C312.32054252 522.56151274 309.66040057 522.78210596 307 523 C307.10393066 523.97296021 307.10393066 523.97296021 307.20996094 524.96557617 C307.70723584 529.7494138 308.17185001 534.4997631 308.25 539.3125 C308.27578125 540.27800781 308.3015625 541.24351562 308.328125 542.23828125 C307.93660629 545.53356369 306.95855004 547.34131408 305 550 C299.90966286 553.39355809 293.78362138 552.34568423 287.8125 552.3125 C287.1304953 552.31034485 286.4484906 552.3081897 285.74581909 552.30596924 C261.66382947 552.1831436 241.11894503 546.50837214 223 530 C222.19965332 530.55977539 221.39930664 531.11955078 220.57470703 531.69628906 C211.16134512 538.10581404 201.42329359 542.53902114 190.875 546.75 C189.30546002 547.38802174 187.7364469 548.02734111 186.16796875 548.66796875 C184.63026998 549.29442217 183.09251047 549.92072652 181.5546875 550.546875 C180.44187408 551.00012146 180.44187408 551.00012146 179.30657959 551.46252441 C176.01251622 552.79898191 172.71698968 554.1060428 169.38769531 555.35351562 C163.378039 557.65884111 159.60273423 559.41576195 156 565 C155.54431641 565.69689941 155.08863281 566.39379883 154.61914062 567.11181641 C153.10507018 569.48142665 151.67267106 571.88705675 150.25 574.3125 C149.75628906 575.11623047 149.26257812 575.91996094 148.75390625 576.74804688 C145.08097159 583.00209864 142.8220871 588.41820039 144.68432617 595.66186523 C146.8610422 601.92081591 149.72734321 607.8930869 152.5625 613.875 C173.70000258 659.66831542 186.50251617 708.76543026 194.81884766 758.35205078 C196.54193882 768.44716515 198.26398997 777.80718854 203 787 C203.44875488 787.90669434 203.89750977 788.81338867 204.35986328 789.74755859 C205.77745307 792.57434422 207.2315216 795.38032591 208.6875 798.1875 C233.67464112 847.42391212 243.92028725 894.6132643 231.77563477 948.69750977 C227.70680491 967.0422264 226.84577446 985.626938 226.796875 1004.37109375 C226.79263393 1005.49704295 226.79263393 1005.49704295 226.78830719 1006.6457386 C226.77345935 1010.62214613 226.7641406 1014.59851876 226.75976562 1018.57495117 C226.75539508 1021.80065305 226.74153782 1025.02608534 226.71875 1028.25170898 C226.45780177 1066.14592618 232.8888509 1099.4880375 244.10955811 1135.76473999 C245.22124331 1139.3591007 246.3238645 1142.95614025 247.42431641 1146.55395508 C248.90988035 1151.40936735 250.3981901 1156.26392092 251.88916016 1161.11767578 C254.65409688 1170.12503538 257.39499722 1179.13953466 260.11270142 1188.16125488 C260.84913147 1190.60177212 261.59077573 1193.04066013 262.33276367 1195.47949219 C264.88774599 1203.92985985 267.1596607 1212.35984293 269 1221 C288.08737191 1209.32301954 306.64825252 1196.79731033 325 1184 C325.66483398 1183.53706543 326.32966797 1183.07413086 327.01464844 1182.59716797 C345.71011702 1169.55617515 363.92760247 1155.88790757 382 1142 C382.79325684 1141.39124023 383.58651367 1140.78248047 384.40380859 1140.15527344 C398.39256034 1129.40463149 412.03902842 1118.26791419 425.4699707 1106.82910156 C428.77239971 1104.02024634 432.12141696 1101.2789976 435.5 1098.5625 C440.88573414 1094.18315122 445.94816799 1089.49955162 451.01953125 1084.765625 C453.26598689 1082.67089076 455.54473428 1080.62670331 457.875 1078.625 C463.70890167 1073.5705758 469.29187258 1068.23644465 474.91748047 1062.953125 C477.0154429 1060.98551662 479.1186242 1059.02361484 481.22265625 1057.0625 C498.47341429 1041.08711955 498.47341429 1041.08711955 514.3984375 1023.8203125 C516.34037422 1021.61313564 518.40738124 1019.56462386 520.5 1017.5 C523.87100065 1014.16879193 527.0451403 1010.74888372 530.12890625 1007.15234375 C532.33079829 1004.61947838 534.60195826 1002.15667478 536.875 999.6875 C541.80268347 994.29123314 546.43262187 988.70370651 551 983 C551.99 983.495 551.99 983.495 553 984 C539.17721519 1007.70886076 539.17721519 1007.70886076 532 1018 C530.917882 1019.56895059 529.83585972 1021.1379672 528.75390625 1022.70703125 C518.60008127 1037.37613267 507.79599068 1051.36779196 496.49707031 1065.16650391 C495.16580047 1066.79694039 493.84393831 1068.43504819 492.5234375 1070.07421875 C487.96900522 1075.71495555 483.2283626 1081.12902781 478.3203125 1086.46484375 C476.42718797 1088.53325758 474.57748296 1090.62405876 472.75 1092.75 C462.43218826 1104.58466984 451.39801761 1115.76523466 440.28417969 1126.84619141 C438.10233092 1129.02261269 435.92597087 1131.20442239 433.75 1133.38671875 C432.33625848 1134.79980037 430.92220726 1136.21257223 429.5078125 1137.625 C428.87118683 1138.2636499 428.23456116 1138.9022998 427.5786438 1139.56030273 C423.78528839 1143.33421205 419.88051504 1146.92497371 415.82365417 1150.41445923 C412.86723206 1152.98486313 410.03667796 1155.68712732 407.1875 1158.375 C402.14434182 1163.09873109 396.97309024 1167.56834291 391.578125 1171.890625 C388.9757371 1174.01985146 386.48424498 1176.23449357 384 1178.5 C378.8249007 1183.20463572 373.43858803 1187.60518139 368 1192 C366.78057483 1192.99917657 365.56186423 1193.99922565 364.34375 1195 C354.72544038 1202.88711 344.92606326 1210.50499874 335 1218 C334.33500488 1218.5038623 333.67000977 1219.00772461 332.98486328 1219.52685547 C266.75020507 1269.69671119 195.64043582 1313.54316692 121.78955078 1351.55664062 C118.39131912 1353.31494148 115.0094881 1355.10292902 111.62963867 1356.89624023 C93.27468813 1366.62972101 74.63633773 1375.69325229 55.75308228 1384.35507202 C51.82992311 1386.15521554 47.9134395 1387.96904638 44.00106812 1389.79251099 C-17.862617 1418.60614934 -81.8185803 1443.56890813 -146.73242188 1464.60986328 C-150.30738089 1465.7705284 -153.87418502 1466.95431376 -157.43894958 1468.14587402 C-218.72741294 1488.62462548 -281.66400967 1505.16158277 -345 1518 C-345.90161865 1518.1828656 -346.8032373 1518.3657312 -347.73217773 1518.55413818 C-420.98062394 1533.35567857 -495.28840094 1543.79176214 -570 1547 C-571.89927246 1547.08459473 -571.89927246 1547.08459473 -573.83691406 1547.17089844 C-659.66802795 1550.8422369 -747.26607457 1546.18111515 -859 1516 C-859.33 1515.34 -859.66 1514.68 -860 1514 C-859.07292236 1514.10546143 -858.14584473 1514.21092285 -857.19067383 1514.31958008 C-801.84802279 1520.58433847 -746.68086821 1523.05872089 -691 1524 C-690.94844361 1517.65441441 -690.91391604 1511.30888454 -690.89013672 1504.96313477 C-690.88020267 1502.81337466 -690.86665086 1500.6636276 -690.84912109 1498.51391602 C-690.71053044 1481.05556963 -691.51376557 1464.23708039 -695.125 1447.125 C-696.85259752 1438.32333736 -697.01726621 1430.13012682 -696.6875 1421.1875 C-696.26216521 1407.96652876 -698.84210951 1396.63515117 -702.79956055 1384.11010742 C-706.43514852 1372.3639738 -708.91128245 1358.74373865 -703.31640625 1347.18359375 C-700.26494305 1342.12196784 -696.67309978 1337.73227694 -692.5703125 1333.484375 C-681.58579699 1322.06582088 -673.55821865 1306.69546973 -673.86889648 1290.49438477 C-674.12181905 1285.68226205 -674.68942023 1280.90945863 -675.25 1276.125 C-676.25063465 1267.51572233 -677.10183858 1258.93751611 -677.66796875 1250.2890625 C-679.26881753 1227.08116602 -683.2647637 1205.4111203 -689.36029053 1182.95677185 C-689.61264465 1182.02615433 -689.86499878 1181.0955368 -690.125 1180.13671875 C-690.37388977 1179.2198378 -690.62277954 1178.30295685 -690.87921143 1177.35829163 C-694.81724037 1162.52787874 -697.30425904 1147.24381877 -699 1132 C-699.16822266 1130.53433594 -699.16822266 1130.53433594 -699.33984375 1129.0390625 C-702.94233187 1091.43500843 -696.2934611 1052.81593317 -689.67578125 1015.8515625 C-689.47186768 1014.70529892 -689.2679541 1013.55903534 -689.05786133 1012.3780365 C-688.04263331 1006.67911263 -687.01049965 1000.98426378 -685.94677734 995.29418945 C-682.94056949 978.87176268 -681.21822788 963.6591205 -685.3125 947.25 C-687.90104739 935.8944417 -689.69785802 924.57080932 -691 913 C-691.13277344 911.82179688 -691.26554687 910.64359375 -691.40234375 909.4296875 C-696.00801231 858.07332851 -688.47764053 784.08874003 -654.5 742.75 C-653.42849817 741.49358369 -652.35559988 740.23835684 -651.28125 738.984375 C-644.14245421 730.45843511 -639.22920367 721.72783673 -634.75 711.5625 C-624.22038575 688.22466037 -611.04802092 667.14238738 -594 648 C-593.54238281 647.48066895 -593.08476563 646.96133789 -592.61328125 646.42626953 C-554.01645587 602.73455509 -500.25593262 583.54470074 -443.875 575.75 C-442.78251953 575.59869629 -441.69003906 575.44739258 -440.56445312 575.29150391 C-421.8476598 572.90195369 -403.08373108 571.8600475 -384.2265625 571.76171875 C-383.46765591 571.7571806 -382.70874931 571.75264244 -381.92684555 571.74796677 C-374.88499199 571.70745702 -367.84323988 571.68213529 -360.80126953 571.69458008 C-356.89248327 571.70042788 -352.98442416 571.68224768 -349.07578659 571.64869118 C-347.60624601 571.64078102 -346.13662528 571.64195428 -344.66710281 571.65271568 C-342.63308233 571.66703889 -340.59890987 571.64810022 -338.56494141 571.62768555 C-337.41393951 571.62705612 -336.26293762 571.6264267 -335.07705688 571.6257782 C-331.01996415 570.80069102 -329.5907273 569.16621413 -327 566 C-325.672807 563.93309079 -325.672807 563.93309079 -324.73828125 561.74609375 C-324.15808228 560.49372925 -324.15808228 560.49372925 -323.56616211 559.21606445 C-323.15245361 558.29913818 -322.73874512 557.38221191 -322.3125 556.4375 C-321.34441589 554.35524739 -320.3728172 552.27462656 -319.3984375 550.1953125 C-318.86186523 549.0496582 -318.32529297 547.90400391 -317.77246094 546.72363281 C-314.44788144 539.69464261 -310.92638511 532.76086428 -307.4375 525.8125 C-306.66623701 524.27381521 -305.89507903 522.73507779 -305.12402344 521.19628906 C-302.35287467 515.66785593 -299.57758575 510.14150369 -296.80236816 504.6151123 C-294.05338021 499.14042576 -291.30632974 493.66477375 -288.5625 488.1875 C-288.18376236 487.43154541 -287.80502472 486.67559082 -287.41481018 485.89672852 C-282.37448096 475.82922258 -277.42217137 465.72607321 -272.59753418 455.55297852 C-269.0142108 447.99856711 -265.30160966 440.51503757 -261.53457642 433.05084229 C-256.35842426 422.79014858 -251.23352274 412.51104083 -246.3125 402.125 C-230.38241547 368.64563852 -213.23146345 335.27993241 -190.890625 305.5234375 C-189.11722563 303.1564623 -187.40530938 300.75289227 -185.70410156 298.33374023 C-178.4261565 288.00561017 -170.69249284 278.02051103 -163 268 C-162.04537562 266.75275515 -161.09092325 265.50537861 -160.13671875 264.2578125 C-152.76545578 254.63211319 -145.35515294 245.0286903 -137.625 235.6875 C-115.10860905 208.33505411 -115.10860905 208.33505411 -107.875 174.375 C-107.8757251 173.12626099 -107.8757251 173.12626099 -107.87646484 171.85229492 C-107.90410396 166.78051732 -108.11275127 161.75016084 -108.46289062 156.69116211 C-110.15996227 131.78970271 -103.74042383 109.91831525 -87.4765625 90.83203125 C-86.25066406 89.43017578 -86.25066406 89.43017578 -85 88 C-83.03764808 85.73262286 -81.08099064 83.4603655 -79.125 81.1875 C-78.61541748 80.59694824 -78.10583496 80.00639648 -77.58081055 79.39794922 C-73.65820951 74.82911964 -69.90972989 70.14560157 -66.21533203 65.39135742 C-62.70424962 60.87684 -59.11778942 56.42936052 -55.5 52 C-51.45000006 47.03778437 -47.44300286 42.04764895 -43.5 37 C-41.6693661 34.66453668 -39.83573372 32.33145666 -38 30 C-37.484375 29.34467285 -36.96875 28.6893457 -36.4375 28.01416016 C-11.45855496 -3.60732286 -11.45855496 -3.60732286 0 0 Z M170.21459961 220.46875 C169.01346779 220.94924805 169.01346779 220.94924805 167.78807068 221.43945312 C166.91828079 221.78943359 166.04849091 222.13941406 165.15234375 222.5 C164.2659169 222.85513672 163.37949005 223.21027344 162.46620178 223.57617188 C159.62265278 224.71583851 156.78006995 225.85789387 153.9375 227 C152.01503691 227.77099033 150.09251169 228.54182574 148.16992188 229.3125 C143.4458905 231.20653349 138.72272455 233.10271046 134 235 C134.7734375 235.95608154 135.546875 236.91216309 136.34375 237.8972168 C136.77880859 238.43501266 137.21386719 238.97280853 137.66210938 239.52690125 C139.52163478 241.57435154 141.50761112 242.64808707 144 243.8125 C144.825 244.21082031 145.65 244.60914063 146.5 245.01953125 C157.30259484 249.25617391 168.45031961 246.89426474 179 243 C180.69464467 242.04818215 182.37300882 241.06333319 184 240 C182.92784001 236.78352002 181.57997166 234.38217653 179.5 231.75 C176.55286564 227.81179391 175.72880727 223.79707475 175 219 C173.28262783 219 171.79476293 219.83470327 170.21459961 220.46875 Z M-511 1024 C-511.11464174 1026.02533732 -511.2217599 1028.051403 -511.28930664 1030.07885742 C-512.50062526 1066.06985993 -529.55385782 1098.48598614 -546.18359375 1129.65625 C-547.12512013 1131.4360615 -548.06372302 1133.21742144 -549 1135 C-549.57210205 1136.08893555 -550.1442041 1137.17787109 -550.73364258 1138.29980469 C-554.7390112 1146.093744 -558.06663058 1153.91792776 -560.8125 1162.25 C-561.01799469 1162.86795441 -561.22348938 1163.48590881 -561.43521118 1164.12258911 C-567.04178027 1181.11228121 -570.92121914 1198.55935733 -574.86132812 1215.99414062 C-575.90218458 1220.59232114 -576.98473759 1225.17970593 -578.078125 1229.765625 C-580.74548318 1241.03279635 -583.20946428 1252.17225996 -584.5 1263.6875 C-586.70455939 1283.34117319 -592.38530869 1302.27039375 -599.19775391 1320.77441406 C-606.64293633 1341.42879112 -609.72986097 1360.94939954 -606.5 1382.8125 C-604.57418777 1396.18443389 -603.15932818 1407.70273488 -608.90625 1420.42578125 C-611.64699277 1429.3821371 -609.8045595 1439.88723572 -609.23046875 1449.1171875 C-609.14792309 1450.46363006 -609.06543017 1451.81007585 -608.98298645 1453.15652466 C-608.80979577 1455.96877172 -608.63365544 1458.7808171 -608.45581055 1461.59277344 C-608.27685095 1464.4293841 -608.10340892 1467.2662413 -607.93530273 1470.10351562 C-606.9619615 1486.51275739 -605.7142767 1502.76924299 -603 1519 C-588.43745091 1518.47918739 -574.02574084 1517.0579022 -559.55029297 1515.41601562 C-555.81949164 1514.99371687 -552.08759454 1514.58228727 -548.35546875 1514.171875 C-545.98430419 1513.90688282 -543.61320762 1513.64128147 -541.2421875 1513.375 C-540.12576874 1513.25205566 -539.00934998 1513.12911133 -537.85910034 1513.00244141 C-536.83938141 1512.88562012 -535.81966248 1512.76879883 -534.76904297 1512.6484375 C-533.86926727 1512.54708496 -532.96949158 1512.44573242 -532.04244995 1512.34130859 C-530.01156409 1512.20519381 -530.01156409 1512.20519381 -529 1511 C-528.98448207 1509.26368764 -529.04314867 1507.52668236 -529.13012695 1505.79248047 C-529.21074875 1504.10393951 -529.21074875 1504.10393951 -529.29299927 1502.38128662 C-529.38966385 1500.51805756 -529.38966385 1500.51805756 -529.48828125 1498.6171875 C-529.58439727 1496.63354928 -529.68050693 1494.64991073 -529.77635956 1492.66625977 C-529.88005999 1490.53768758 -529.9861611 1488.40924638 -530.09286499 1486.28082275 C-530.46372048 1478.87017201 -530.81359771 1471.45851311 -531.1640625 1464.046875 C-531.19980314 1463.2939983 -531.23554379 1462.5411216 -531.27236748 1461.76543045 C-532.00886725 1446.22201697 -532.62694258 1430.67581838 -533.1875 1415.125 C-533.22992828 1413.97159119 -533.27235657 1412.81818237 -533.31607056 1411.62982178 C-533.43590607 1408.36007019 -533.55264092 1405.09022589 -533.66796875 1401.8203125 C-533.71931473 1400.41026947 -533.71931473 1400.41026947 -533.771698 1398.97174072 C-534.08413458 1389.81471523 -534.31824088 1380.78812415 -533.08984375 1371.69140625 C-532.90270002 1370.1868856 -532.71586032 1368.6823271 -532.52929688 1367.17773438 C-532.23527801 1364.86940476 -531.93739405 1362.56169551 -531.63354492 1360.25463867 C-530.1256472 1348.69900521 -528.96644177 1337.69132918 -532.9375 1326.4375 C-537.41550786 1312.66151946 -540.75863884 1293.47524382 -533.9296875 1279.8671875 C-531.45392404 1275.64749003 -528.59007391 1272.33960363 -525 1269 C-519.73635564 1263.86989419 -514.77046307 1258.58934495 -510 1253 C-509.19949219 1252.08863281 -508.39898438 1251.17726563 -507.57421875 1250.23828125 C-476.13050266 1214.87329615 -476.13050266 1214.87329615 -461.21875 1173.18164062 C-461.2703125 1172.44107422 -461.321875 1171.70050781 -461.375 1170.9375 C-461.41882812 1170.22400391 -461.46265625 1169.51050781 -461.5078125 1168.77539062 C-461.75629418 1164.91357122 -462.09592682 1161.07651591 -462.5234375 1157.23046875 C-463.13040103 1151.28073455 -463.23193193 1145.3524468 -463.25 1139.375 C-463.25394775 1138.23579102 -463.25789551 1137.09658203 -463.26196289 1135.92285156 C-463.20784192 1128.0468561 -462.43474587 1120.80989876 -460.55859375 1113.171875 C-459.44818091 1106.86659369 -461.59397914 1102.48902305 -464.4375 1097 C-474.53564589 1076.37810695 -480.0760473 1054.13823758 -484.43359375 1031.71923828 C-485.12214492 1028.41359909 -485.99829103 1025.22309135 -487 1022 C-499.84425442 1020.92648745 -499.84425442 1020.92648745 -511 1024 Z M19.16162109 1086.41601562 C16.10443791 1088.65624654 13.02415319 1090.86313063 9.9375 1093.0625 C9.10303345 1093.65792603 9.10303345 1093.65792603 8.25170898 1094.26538086 C3.02083093 1097.99358938 -2.22445349 1101.70149168 -7.47729492 1105.39868164 C-11.05955806 1107.92021853 -14.63426227 1110.45093308 -18.19140625 1113.0078125 C-40.69170927 1129.14184248 -62.78751892 1142.6627173 -90 1149 C-90.90395508 1149.21076172 -91.80791016 1149.42152344 -92.73925781 1149.63867188 C-117.43188172 1155.16802819 -142.88766462 1157.22124314 -168 1160 C-167.92563721 1161.29478271 -167.85127441 1162.58956543 -167.7746582 1163.92358398 C-167.28892693 1172.86384829 -166.90628819 1181.76803359 -167.04296875 1190.72265625 C-167.05321075 1191.49773529 -167.06345276 1192.27281433 -167.07400513 1193.07138062 C-167.11859463 1196.19472275 -167.16891081 1199.31747891 -167.24682617 1202.44018555 C-167.4585342 1211.4456347 -167.33333196 1219.10364917 -163.94165039 1227.62109375 C-159.27161581 1239.41907585 -162.21395438 1254.10739387 -163.53787231 1266.35766602 C-165.13542301 1281.36494966 -166.19759867 1296.36565733 -166.828125 1311.44140625 C-166.85994558 1312.20188704 -166.89176617 1312.96236782 -166.92455101 1313.74589348 C-167.24118301 1321.4010215 -167.5322911 1329.05687516 -167.79599285 1336.71400452 C-168.55040739 1358.4584583 -169.37477625 1380.28080736 -174.25 1401.5625 C-176.31257421 1410.90643137 -176.05269524 1419.52574285 -175 1429 C-168.84383546 1427.75189684 -162.94768128 1426.12032682 -157.0078125 1424.0859375 C-156.16176453 1423.79980087 -155.31571655 1423.51366425 -154.44403076 1423.21885681 C-151.66882655 1422.27720559 -148.89663926 1421.32709005 -146.125 1420.375 C-145.1583844 1420.04398285 -144.1917688 1419.7129657 -143.19586182 1419.37191772 C-76.48299208 1396.49236542 -10.99696729 1369.80939677 52.90551758 1339.97723389 C55.06698425 1338.9687468 57.22966626 1337.96290302 59.39257812 1336.95751953 C77.40379403 1328.58033304 95.29956251 1320.01906648 113 1311 C112.6626142 1305.02967062 112.30752975 1299.06071066 111.93798828 1293.09228516 C111.81529139 1291.07400092 111.69692824 1289.05544722 111.58349609 1287.03662109 C110.34990522 1265.19223754 106.74045961 1244.19394826 101.62722778 1222.94320679 C97.15830584 1204.27837398 93.17937931 1185.53498589 89.5625 1166.6875 C89.34086182 1165.53264099 89.11922363 1164.37778198 88.89086914 1163.18792725 C86.05661537 1148.35274907 83.35732685 1133.49459132 80.7109375 1118.625 C80.57361898 1117.8542042 80.43630047 1117.08340839 80.29482079 1116.28925514 C78.9397036 1108.68100314 77.5893934 1101.07200691 76.26350403 1093.458601 C75.77312929 1090.64803029 75.27805765 1087.83829893 74.78213882 1085.02870178 C74.44201197 1083.09092911 74.10860011 1081.15198158 73.77536011 1079.2130127 C73.57032867 1078.05370239 73.36529724 1076.89439209 73.15405273 1075.69995117 C72.9784935 1074.69050949 72.80293427 1073.68106781 72.62205505 1072.64103699 C72.02983642 1070.12667544 71.35365966 1068.1937012 70 1066 C53.26016919 1057.63008459 31.5037726 1077.34315121 19.16162109 1086.41601562 Z M-316 1163 C-316.32254761 1164.24982666 -316.32254761 1164.24982666 -316.65161133 1165.52490234 C-329.29334825 1213.9091518 -352.51330504 1266.21990172 -397.67675781 1292.72412109 C-403.5254964 1295.93613327 -409.58981802 1298.7845293 -415.64892578 1301.57543945 C-422.48317816 1304.83055868 -427.93329564 1307.92115968 -430.88378906 1315.171875 C-431.64283638 1317.57737782 -432.27157778 1319.98852466 -432.875 1322.4375 C-435.98201119 1333.75071263 -440.67034192 1343.49448934 -446.69921875 1353.5234375 C-447.15393555 1354.28116455 -447.60865234 1355.0388916 -448.07714844 1355.81958008 C-448.95870908 1357.27307929 -449.85317269 1358.71886158 -450.76269531 1360.1550293 C-454.39464562 1366.05946475 -455.4340159 1371.24765116 -454.5625 1378.1875 C-453.26873954 1390.90085281 -453.92710957 1403.78132872 -458 1416 C-459.56850388 1435.92771325 -455.21994236 1456.2583351 -451 1475.625 C-450.7632959 1476.71989746 -450.5265918 1477.81479492 -450.28271484 1478.94287109 C-448.76630549 1485.5934827 -446.70074115 1491.74153661 -444 1498 C-437.15706205 1497.43096422 -430.50321126 1496.45279724 -423.7734375 1495.1015625 C-422.32716225 1494.81613083 -422.32716225 1494.81613083 -420.85166931 1494.52493286 C-417.69143278 1493.89816187 -414.53305359 1493.26267449 -411.375 1492.625 C-410.2752182 1492.40380493 -409.1754364 1492.18260986 -408.04232788 1491.95471191 C-369.04817729 1484.09184255 -330.45161749 1474.77591281 -291.9296875 1464.87109375 C-290.40028282 1464.4796241 -290.40028282 1464.4796241 -288.83998108 1464.08024597 C-284.16486083 1462.87130406 -279.55620634 1461.61363641 -275 1460 C-274.74112658 1451.96917122 -275.51680807 1444.20659706 -276.5625 1436.25 C-276.64924988 1435.5856192 -276.73599976 1434.9212384 -276.82537842 1434.23672485 C-279.71822292 1412.30496447 -284.01157842 1390.60181826 -288.46484375 1368.94140625 C-293.91497877 1342.39475376 -298.84691861 1315.92706475 -302 1289 C-302.08745483 1288.26007813 -302.17490967 1287.52015625 -302.26501465 1286.7578125 C-304.2079907 1270.08395353 -305.04931681 1253.47202209 -305.2578125 1236.6875 C-305.26661375 1236.01221567 -305.275415 1235.33693134 -305.28448296 1234.64118385 C-305.36368142 1228.481094 -305.43991894 1222.32115712 -305.4437561 1216.16049194 C-305.41099658 1195.25370321 -305.41099658 1195.25370321 -310 1175 C-310.39372803 1173.76918701 -310.78745605 1172.53837402 -311.19311523 1171.27026367 C-312.08922288 1168.49748431 -313.02262469 1165.74496894 -314 1163 C-314.66 1163 -315.32 1163 -316 1163 Z " fill="#0D0D19" transform="translate(1914,1)"/>
<path d="M0 0 C142.56 0 285.12 0 432 0 C432 7.92 432 15.84 432 24 C428.761875 24.103125 425.52375 24.20625 422.1875 24.3125 C400.94566246 25.18838663 376.82676839 27.9579945 360.546875 43.23046875 C333.96046356 73.64371214 341.85635697 127.33439257 341.79939139 165.03101969 C341.79123088 169.73402164 341.77758965 174.43700852 341.76467896 179.13999939 C341.74313305 187.250772 341.72491111 195.36154631 341.70907402 203.472332 C341.68617243 215.19856211 341.65806013 226.92477539 341.62875474 238.65099104 C341.58132426 257.68496309 341.5379952 276.7189421 341.49731445 295.75292969 C341.45783351 314.22135966 341.41636744 332.68978347 341.37231445 351.15820312 C341.36819019 352.88875124 341.36819019 352.88875124 341.36398262 354.65425992 C341.34245818 363.67954498 341.32082015 372.70482976 341.29914629 381.73011446 C341.19329502 425.82006375 341.09733342 469.91002949 341 514 C447.92 514 554.84 514 665 514 C664.88024442 442.8788858 664.88024442 442.8788858 664.7421875 371.7578125 C664.72218225 362.14876332 664.70229825 352.53971391 664.68261719 342.93066406 C664.68014575 341.72647929 664.67767431 340.52229453 664.67512798 339.28161931 C664.63550844 319.89138483 664.60272231 300.5011446 664.57250018 281.11089346 C664.54128467 261.18184239 664.50263287 241.25281554 664.45720994 221.32379174 C664.4294569 209.04623057 664.40736738 196.76868691 664.39273749 184.49110296 C664.38212009 176.0491963 664.3642198 167.60732376 664.34083296 159.16544291 C664.32758776 154.30942574 664.31732193 149.45345593 664.31578636 144.59741974 C666.79784686 90.73132635 666.79784686 90.73132635 645.81640625 43.66015625 C626.82058388 25.39377346 599.80831958 24.91882665 575 24 C575 16.08 575 8.16 575 0 C717.23 0 859.46 0 1006 0 C1006 7.92 1006 15.84 1006 24 C1002.926875 24.103125 999.85375 24.20625 996.6875 24.3125 C973.9936186 25.30907671 949.73338111 28.54443819 933.0703125 45.4609375 C928.25147604 51.37083128 925.1214672 57.44233749 922.8125 64.6875 C922.43025269 65.86759644 922.43025269 65.86759644 922.0402832 67.0715332 C916.48054814 84.8131772 916.81814753 103.85908916 916.44558716 122.29466248 C916.42461563 123.30539715 916.40364409 124.31613183 916.38203706 125.35749482 C915.77291445 155.68168114 915.85672998 186.01259289 915.86833142 216.34142609 C915.87160419 225.44063191 915.86889001 234.53983397 915.86612797 243.63903962 C915.86090892 261.45772403 915.86129974 279.27640482 915.86420688 297.09508956 C915.86673813 312.68937952 915.8673719 328.28366817 915.86618423 343.8779583 C915.86610785 344.91868879 915.86603146 345.95941929 915.86595276 347.03168707 C915.86564135 351.25800171 915.86532294 355.48431636 915.864993 359.710631 C915.86194483 399.22898279 915.86469022 438.74733228 915.8700899 478.26568371 C915.87483464 513.25663216 915.87440932 548.24757697 915.86962891 583.23852539 C915.86425646 622.6933631 915.86216079 662.1481988 915.86524117 701.60303682 C915.86556181 705.8206437 915.86587466 710.03825059 915.86618423 714.25585747 C915.86626331 715.29408463 915.86634239 716.3323118 915.86642386 717.40200039 C915.86755398 732.97443761 915.86624493 748.54687336 915.86370468 764.11931038 C915.86082611 781.85246529 915.86160094 799.58561607 915.86698543 817.31877048 C915.86963642 826.34344142 915.87078791 835.36810563 915.86733627 844.39277649 C915.82859859 889.83681716 915.82859859 889.83681716 916.46121216 935.27537537 C916.49194206 936.68923381 916.49194206 936.68923381 916.52329277 938.13165504 C916.61101807 979.94311414 916.61101807 979.94311414 935.5625 1015.87109375 C951.55500025 1029.83890247 973.36341023 1032.71823306 993.75 1034.125 C994.9359375 1034.21136719 996.121875 1034.29773437 997.34375 1034.38671875 C1000.22881007 1034.59611827 1003.11435821 1034.79877572 1006 1035 C1006 1042.92 1006 1050.84 1006 1059 C863.77 1059 721.54 1059 575 1059 C575 1051.08 575 1043.16 575 1035 C576.71703125 1034.90203125 578.4340625 1034.8040625 580.203125 1034.703125 C607.57284755 1033.34281503 607.57284755 1033.34281503 633 1024 C633.94230469 1023.4740625 634.88460937 1022.948125 635.85546875 1022.40625 C648.81879372 1014.7087291 655.17130382 1004.07581569 659.25 989.6875 C665.48601329 964.17418424 664.16266711 937.36273006 664.20060861 911.28420663 C664.20870235 906.45151173 664.22236837 901.61883195 664.23532104 896.78614807 C664.25695815 888.43510672 664.27514848 880.08406374 664.29092598 871.73300934 C664.31374205 859.65912838 664.34186784 847.58526426 664.37124526 835.51139769 C664.41877832 815.9172739 664.46208069 796.32314318 664.50268555 776.72900391 C664.54211353 757.70718853 664.58356786 738.68537932 664.62768555 719.66357422 C664.63043505 718.47702047 664.63318456 717.29046673 664.63601738 716.06795681 C664.65753944 706.78685358 664.67917816 697.50575063 664.70085371 688.22464776 C664.80687245 642.81644433 664.90272623 597.40822463 665 552 C558.08 552 451.16 552 341 552 C341.14895316 618.27344855 341.14895316 618.27344855 341.30664062 684.546875 C341.32860275 693.5058592 341.35050702 702.46484354 341.37231445 711.42382812 C341.37504964 712.54651415 341.37778483 713.66920018 341.3806029 714.82590699 C341.42453445 732.89261757 341.46520726 750.95933407 341.50465261 769.02605493 C341.54528178 787.60135261 341.58946812 806.17663944 341.63687855 824.75192106 C341.66596547 836.19110521 341.6923587 847.6302888 341.71517897 859.0694872 C341.73114724 866.93999076 341.75060604 874.81048115 341.77266841 882.68096997 C341.78525161 887.20508087 341.79643213 891.72918213 341.80341911 896.25330544 C338.163961 959.28091374 338.163961 959.28091374 360.859375 1015.09765625 C379.16722356 1032.95813257 408.03695628 1033.70470034 432 1035 C432 1042.92 432 1050.84 432 1059 C289.44 1059 146.88 1059 0 1059 C0 1051.08 0 1043.16 0 1035 C2.7534375 1034.83564453 2.7534375 1034.83564453 5.5625 1034.66796875 C27.72618395 1033.27055837 48.01549033 1031.69209215 67 1019 C68.3303125 1018.13375 68.3303125 1018.13375 69.6875 1017.25 C85.07392726 1002.27942213 87.92258361 980.40994519 89.09782887 960.05370522 C89.14025513 959.34017761 89.18268139 958.62665 89.2263933 957.89150034 C90.1731919 941.67662918 90.28305811 925.48585439 90.25073375 909.24806185 C90.24462938 905.02226919 90.2504292 900.79648736 90.25455457 896.57069457 C90.26017922 889.20167521 90.25855045 881.83268689 90.2518692 874.46366882 C90.24196152 863.50537223 90.24370681 852.54709789 90.2476195 841.5887986 C90.25386496 823.13988659 90.25075715 804.69098742 90.24202538 786.24207687 C90.23338524 767.98214982 90.22850582 749.72222854 90.22869301 731.46229935 C90.22870065 730.32278318 90.2287083 729.18326702 90.22871618 728.00922006 C90.22875709 723.38279353 90.22882271 718.75636699 90.22892199 714.12994046 C90.22982631 670.80809567 90.21990923 627.48625966 90.20449232 584.16441792 C90.19086115 545.71882291 90.18463152 507.27323413 90.18530273 468.82763672 C90.18534315 466.35734965 90.18538351 463.88706258 90.18542381 461.41677551 C90.18545434 459.58483076 90.18545434 459.58483076 90.18548548 457.71587702 C90.18558629 451.56735131 90.18567687 445.41882561 90.18575573 439.27029991 C90.18577244 438.05714572 90.18578916 436.84399154 90.18580638 435.5940751 C90.18617187 403.41042802 90.18162959 371.22678172 90.17542917 339.04313529 C90.17520889 337.89776764 90.17498862 336.7524 90.17476168 335.57232424 C90.17387352 330.96715771 90.1729851 326.36199118 90.17207072 321.75682465 C90.16891725 305.76871021 90.16740231 289.78059638 90.16695923 273.79248165 C90.16636108 253.19176821 90.16234532 232.59105988 90.15252777 211.99034862 C90.14743057 201.10826737 90.14499745 190.22619362 90.14652396 179.34411124 C90.14726239 172.06223282 90.14432508 164.78036167 90.13848015 157.49848558 C90.13525387 153.35885169 90.13351557 149.21923344 90.13624074 145.07959883 C90.15136374 124.06937462 90.15136374 124.06937462 89.56976795 103.06862831 C89.533143 102.1932166 89.49651805 101.3178049 89.45878325 100.41586556 C88.43743428 79.5810037 85.65955842 57.14218028 70.0625 41.8125 C53.30630923 28.02826874 31.97274146 25.23895833 11 24.4375 C7.37 24.293125 3.74 24.14875 0 24 C0 16.08 0 8.16 0 0 Z " fill="#0D0D19" transform="translate(0,1043)"/>
<path d="M0 0 C58.74 0 117.48 0 178 0 C178 3.63 178 7.26 178 11 C176.87722656 11.09796875 175.75445313 11.1959375 174.59765625 11.296875 C165.01567281 12.21805496 157.12710822 13.24012064 149.1875 19.0625 C140.36781573 30.90607602 141.84664315 46.63908457 141.79467773 60.6706543 C141.78508006 62.32743056 141.77506892 63.98420447 141.76467896 65.64097595 C141.73782832 70.10710911 141.71671236 74.57325261 141.69667697 79.03942084 C141.67469385 83.71858554 141.64736591 88.39771906 141.62062073 93.07685852 C141.57085948 101.92338369 141.52585973 110.76992633 141.48259836 119.61648542 C141.42381285 131.58080427 141.35761579 143.545082 141.29184818 155.50936413 C141.18853292 174.33954832 141.09507153 193.16976821 141 212 C184.89 212 228.78 212 274 212 C273.85104482 182.81345141 273.85104482 182.81345141 273.69335938 153.62695312 C273.62708763 141.71916951 273.56176347 129.81138622 273.50268555 117.90356445 C273.4596487 109.22989559 273.41332319 100.55625145 273.36312145 91.88262099 C273.33667662 87.29409346 273.31182915 82.70557033 273.29092598 78.11701393 C273.27115756 73.78899296 273.24695762 69.46101834 273.21950912 65.13303947 C273.21024443 63.55336485 273.20253259 61.97368014 273.19658089 60.39398956 C273.84981973 38.63270409 273.84981973 38.63270409 265.8125 19.0625 C256.68228215 12.36700691 246.9768429 11.89993534 236 11 C236 7.37 236 3.74 236 0 C295.07 0 354.14 0 415 0 C415 3.63 415 7.26 415 11 C413.22496094 11.12955078 413.22496094 11.12955078 411.4140625 11.26171875 C400.79840515 12.15562156 392.20722334 13.23594461 384.0625 20.6875 C373.67936618 37.36344219 377.85335824 63.03181427 377.86927533 81.99279296 C377.87156215 86.03169599 377.86803369 90.0705949 377.86529541 94.10949707 C377.86087362 101.99753391 377.86179808 109.88556118 377.86470805 117.77359838 C377.86697611 124.18988097 377.86726855 130.6061609 377.86618423 137.02244377 C377.866031 137.93929196 377.86587777 138.85614014 377.86571989 139.80077161 C377.86540013 141.66392756 377.86507592 143.52708352 377.8647473 145.39023947 C377.86190307 162.81698342 377.865163 180.24372208 377.87054767 197.67046516 C377.87501549 212.59142929 377.87423789 227.51238563 377.86962891 242.43334961 C377.86426573 259.80376356 377.86217688 277.17417289 377.86524117 294.54458755 C377.86555969 296.40018237 377.86587406 298.25577718 377.86618423 300.11137199 C377.86633851 301.02411883 377.86649279 301.93686566 377.86665174 302.87727149 C377.86751161 309.27902261 377.86606548 315.68077078 377.86370468 322.08252144 C377.86088713 329.89376955 377.861686 337.70500763 377.86698543 345.51625461 C377.86959606 349.49408978 377.87067273 353.47190827 377.86733627 357.44974327 C375.60534304 388.64654086 375.60534304 388.64654086 384.57421875 417.02734375 C390.91326882 422.8535718 398.12431975 424.45733348 406.4375 425.1875 C407.67790039 425.3102832 407.67790039 425.3102832 408.94335938 425.43554688 C410.96126882 425.63383855 412.98052412 425.81835402 415 426 C415 429.63 415 433.26 415 437 C355.93 437 296.86 437 236 437 C236 433.37 236 429.74 236 426 C237.19496094 425.90203125 238.38992187 425.8040625 239.62109375 425.703125 C253.70715591 424.45096355 253.70715591 424.45096355 265.875 417.6875 C270.27030316 412.12873424 271.52255726 406.50028228 272.16757202 399.61965942 C272.24722431 398.83467988 272.32687659 398.04970034 272.40894258 397.24093354 C273.17079624 389.18897211 273.30777283 381.16750516 273.31884766 373.08544922 C273.32818132 371.48675042 273.33835487 369.88805633 273.34928894 368.28936768 C273.37621636 364.01372034 273.39162551 359.7381052 273.40471697 355.46239614 C273.42051361 350.97010258 273.44724958 346.4778733 273.4727478 341.98562622 C273.51924653 333.50766761 273.55612902 325.02969651 273.58942068 316.55167687 C273.6350556 305.07501153 273.69582126 293.59842646 273.75566864 282.12182808 C273.84935243 264.08125928 273.92305889 246.04066598 274 228 C230.11 228 186.22 228 141 228 C141.11985261 256.96001086 141.11985261 256.96001086 141.2578125 285.91992188 C141.31812702 297.7375309 141.37648948 309.55512568 141.421875 321.37280273 C141.45494504 329.98132421 141.49485771 338.58978297 141.54279006 347.19823498 C141.56790672 351.75106083 141.5897307 356.30384589 141.60334396 360.85672188 C141.61630034 365.1536033 141.6384966 369.4503437 141.66738319 373.74714661 C141.67635411 375.31307372 141.68212422 376.87902348 141.68421364 378.4449749 C141.36795301 399.23465225 141.36795301 399.23465225 149 418 C156.57906901 425.03770694 168.18730476 425.42278263 178 426 C178 429.63 178 433.26 178 437 C119.26 437 60.52 437 0 437 C0 433.37 0 429.74 0 426 C1.18335938 425.91363281 2.36671875 425.82726563 3.5859375 425.73828125 C14.20899909 424.84375496 22.7168682 423.7210965 30.9375 416.375 C35.60286695 408.74076318 36.47210902 400.07518811 36.67941284 391.28918457 C36.71251678 390.26431332 36.74562073 389.23944207 36.77972782 388.18351412 C37.15968339 374.99175164 37.14244997 361.79307576 37.13072467 348.59702849 C37.12842278 344.74828282 37.13197353 340.8995413 37.13470459 337.05079651 C37.13911095 329.54624841 37.13820893 322.04171041 37.13529195 314.53716195 C37.13301752 308.42857731 37.13273415 302.31999546 37.13381577 296.21141052 C37.13404561 294.89867183 37.13404561 294.89867183 37.13428011 293.55941316 C37.13459989 291.78058453 37.1349241 290.0017559 37.1352527 288.22292727 C37.13809245 271.61047786 37.13484419 254.99803399 37.12945233 238.38558549 C37.12498567 224.18495135 37.12576203 209.98432539 37.13037109 195.78369141 C37.13574357 179.22364242 37.1378179 162.66359827 37.13475883 146.10354853 C37.13444034 144.33189551 37.13412597 142.56024249 37.13381577 140.78858948 C37.13366149 139.9172951 37.13350721 139.04600072 37.13334826 138.14830348 C37.1324911 132.05935261 37.13392858 125.97040486 37.13629532 119.88145447 C37.13912335 112.44348338 37.13829255 105.00552283 37.13301457 97.56755292 C37.13041759 93.78525933 37.12930298 90.00298317 37.13266373 86.22068977 C37.1434225 72.71530754 37.11545869 59.21044206 36.67941284 45.71081543 C36.64644598 44.31360535 36.64644598 44.31360535 36.61281312 42.88816881 C36.27013688 34.20854298 35.11459341 24.84788658 28.7578125 18.4296875 C20.5725932 11.7723758 10.09658579 11.82776755 0 11 C0 7.37 0 3.74 0 0 Z " fill="#0D0D19" transform="translate(1835,1665)"/>
<path d="M0 0 C1.37406006 0.19335938 1.37406006 0.19335938 2.77587891 0.390625 C34.18312662 4.95972115 68.61532324 14.93601032 89 41 C97.9228441 53.68155132 101.54735583 67.08372845 101.375 82.5 C101.38660156 83.53769531 101.39820312 84.57539062 101.41015625 85.64453125 C101.34904005 102.00329988 95.6850165 115.96417478 84.3046875 127.78515625 C71.95895124 139.64961805 58.65409919 143.51994995 41.921875 143.28515625 C35.52052725 143.04036989 29.90414974 141.43461347 24 139 C23.2678125 138.72285156 22.535625 138.44570312 21.78125 138.16015625 C9.21209077 132.74843491 0.03573903 120.34446749 -5 108 C-7.62482119 99.23383662 -8.52046578 90.80780962 -8.4375 81.6875 C-8.42614014 79.91983276 -8.42614014 79.91983276 -8.41455078 78.11645508 C-8.23962883 68.82324752 -7.14606526 60.76193875 -4 52 C-3.57589844 50.80632812 -3.15179687 49.61265625 -2.71484375 48.3828125 C0.32823301 40.63525775 4.32889759 34.19522109 9.2421875 27.546875 C11.18934263 25.24142829 11.18934263 25.24142829 11 23 C-11.9619798 14.50777767 -37.90043314 14.82099518 -60.25 25.0625 C-74.02277561 32.38911351 -84.78102126 44.2499076 -90 59 C-95.09813443 77.69995708 -94.01854888 96.61879671 -85 114 C-65.50772808 147.01316951 -34.63684506 163.81542468 -2.28515625 181.77807617 C8.3017098 187.67797869 18.68831712 193.89445416 29.03808594 200.19921875 C31.87596488 201.92458926 34.72231353 203.63515354 37.5703125 205.34375 C53.21478472 214.79368937 68.24681862 224.97534985 81.5 237.62109375 C83.66633072 239.68249282 85.88381907 241.59676361 88.1875 243.5 C93.1097388 247.78020765 97.02021887 252.85711382 101 258 C101.6703125 258.84304688 102.340625 259.68609375 103.03125 260.5546875 C111.74728925 271.93396097 118.81296696 284.96384411 122 299 C122.17442627 299.75740479 122.34885254 300.51480957 122.52856445 301.29516602 C124.18523237 309.24879116 124.35820312 317.08692755 124.3125 325.1875 C124.31034485 325.87353302 124.3081897 326.55956604 124.30596924 327.26638794 C124.16829645 354.55862509 115.93025268 377.36839098 98 398 C97.26394531 398.88042969 96.52789063 399.76085938 95.76953125 400.66796875 C89.26534819 408.19075144 82.0350328 414.21292875 74 420 C73.4539209 420.39429199 72.9078418 420.78858398 72.34521484 421.19482422 C27.09701483 453.28040905 -33.9324616 458.44068128 -87.18017578 449.46386719 C-107.73151724 445.75867438 -127.21542711 440.16491266 -146 431 C-146.66902344 430.67773438 -147.33804688 430.35546875 -148.02734375 430.0234375 C-157.57767071 425.37119902 -165.85956922 419.81138085 -174 413 C-174.969375 412.195625 -175.93875 411.39125 -176.9375 410.5625 C-191.52941287 397.91617551 -201.19853387 382.13857986 -203.23193359 362.79345703 C-204.47665655 344.88436738 -200.6162092 326.52812775 -188.6875 312.6875 C-178.83582865 302.45818124 -169.81025607 297.02361572 -155.3737793 296.52929688 C-136.87717894 296.33215752 -121.86637518 301.70782066 -108.25390625 314.62109375 C-96.31376774 327.22342365 -92.42289883 342.7200837 -92.68359375 359.76953125 C-93.76092803 378.65218103 -99.40815778 396.83801918 -112.5 410.75 C-114.53816495 413.11493596 -114.97629761 413.85482287 -115.5 417.0625 C-112.065977 423.78746172 -103.99846655 426.17849383 -97.25 428.625 C-68.60474841 437.77566815 -35.03407273 439.51295516 -7.25390625 426.765625 C9.38089221 417.73929979 21.17036611 404.0441049 27 386 C32.02067276 366.97042568 31.03108993 348.24754338 21.42578125 330.85546875 C17.5539726 324.38956442 12.39593239 319.19893803 7 314 C6.07445313 313.07832031 5.14890625 312.15664062 4.1953125 311.20703125 C-18.5579842 289.36764813 -47.73186589 273.86717187 -74.8125 258.125 C-120.73374628 231.41073717 -169.73118976 202.02593154 -186.0390625 147.83984375 C-193.98208216 116.10005379 -191.57054571 82.62185168 -175 54 C-155.9267821 24.63679942 -125.06398484 9.65762318 -91.79296875 2.32421875 C-62.28708241 -3.70322341 -29.82422272 -4.28974554 0 0 Z " fill="#0D0D19" transform="translate(2900,1658)"/>
<path d="M0 0 C110.22 0 220.44 0 334 0 C334 33.33 334 66.66 334 101 C327.4 101 320.8 101 314 101 C313.89042969 98.298125 313.78085938 95.59625 313.66796875 92.8125 C313.55149301 90.13788926 313.43107539 87.46348227 313.31030273 84.7890625 C313.22970327 82.95850934 313.15307426 81.12777617 313.08081055 79.296875 C312.05551842 50.40490738 312.05551842 50.40490738 298 26 C288.54395966 18.05760641 279.16297557 17.70134116 267.24023438 17.68115234 C265.83753129 17.67172905 264.43483375 17.66144813 263.03214264 17.6503849 C259.29497879 17.62325445 255.55785396 17.60777484 251.82061768 17.59480286 C248.3064664 17.58081271 244.79241996 17.55618945 241.27832031 17.5324707 C231.01894003 17.46936131 220.75946114 17.42320402 210.5 17.375 C187.565 17.25125 164.63 17.1275 141 17 C141 81.35 141 145.7 141 212 C177.499784 217.63358789 177.499784 217.63358789 229 204 C239.80387106 187.91866198 238.62717232 168.53853514 239 150 C245.6 150 252.2 150 259 150 C259 196.2 259 242.4 259 290 C252.4 290 245.8 290 239 290 C238.96261719 288.14117188 238.92523437 286.28234375 238.88671875 284.3671875 C238.9156965 256.65251138 238.9156965 256.65251138 226 233 C203.57490484 219.64036884 145.88963007 228.06607608 141 228 C141 291.36 141 354.72 141 420 C166.018125 419.9175 191.03625 419.835 216.8125 419.75 C224.70003174 419.73420898 232.58756348 419.71841797 240.71411133 419.70214844 C247.80985111 419.6689117 247.80985111 419.6689117 254.90556335 419.63043213 C258.05596189 419.61348779 261.20617012 419.60756569 264.35661316 419.60845947 C268.38564599 419.60923503 272.41417624 419.59078679 276.4430784 419.55891085 C277.91515811 419.55044711 279.38729483 419.54851648 280.85938799 419.55417585 C292.6144493 419.59361724 302.56380137 418.26239174 311.2890625 409.83984375 C328.83749139 390.96927295 325.61117227 359.98664868 326 336 C332.6 336 339.2 336 346 336 C346 369.33 346 402.66 346 437 C231.82 437 117.64 437 0 437 C0 433.37 0 429.74 0 426 C1.18335937 425.91363281 2.36671875 425.82726563 3.5859375 425.73828125 C13.76091035 424.88050112 22.70359835 424.02479131 30.4375 416.6875 C34.89004752 409.02911826 36.1229184 401.36178832 36.12863445 392.52872753 C36.13347112 390.6308133 36.13347112 390.6308133 36.1384055 388.69455737 C36.13693459 387.30322267 36.13536689 385.91188808 36.13371277 384.52055359 C36.13558212 383.03258561 36.13788332 381.54461812 36.14057809 380.05665141 C36.14668706 375.97579922 36.14656356 371.89496755 36.14538372 367.81411183 C36.14517948 363.40977293 36.15070062 359.00544058 36.15544128 354.60110474 C36.16374335 345.97529634 36.16649592 337.34949478 36.16705366 328.72368272 C36.16752902 321.71163418 36.16958473 314.69958789 36.17275429 307.68754005 C36.18155951 287.80270483 36.18617385 267.91787499 36.18542381 248.0330378 C36.18538386 246.96131746 36.1853439 245.88959711 36.18530273 244.78540039 C36.18524141 243.17585491 36.18524141 243.17585491 36.18517885 241.53379337 C36.18477238 224.14279531 36.19434262 206.7518189 36.2084411 189.36082711 C36.22280645 171.49957967 36.2297112 153.63834278 36.22884732 135.77708942 C36.22851542 125.75107427 36.23125973 115.72508182 36.24202538 105.69907188 C36.25113243 97.1630801 36.25330392 88.6271213 36.24651595 80.09112676 C36.24325185 75.73751831 36.24319014 71.38397314 36.2518692 67.03037071 C36.25973987 63.04119302 36.25829699 59.05212875 36.24958507 55.06295381 C36.24805134 53.62355942 36.24986145 52.18415654 36.25544515 50.74477216 C36.29438232 39.99105003 36.17394902 29.23948621 30 20 C23.92348777 13.92348777 16.77886266 12.5341628 8.5625 11.8125 C7.73556641 11.73064453 6.90863281 11.64878906 6.05664062 11.56445312 C4.03873118 11.36616145 2.01947588 11.18164598 0 11 C0 7.37 0 3.74 0 0 Z " fill="#0D0D19" transform="translate(2296,1665)"/>
<path d="M0 0 C110.22 0 220.44 0 334 0 C334 33.33 334 66.66 334 101 C327.4 101 320.8 101 314 101 C313.96261719 98.69386719 313.92523437 96.38773438 313.88671875 94.01171875 C314.23198474 57.87400438 314.23198474 57.87400438 298.6875 26.375 C289.49167621 18.24845805 280.14829247 17.7010781 268.26196289 17.68115234 C266.84936927 17.67173207 265.43678117 17.66145158 264.02419949 17.6503849 C260.25589781 17.6232207 256.48763493 17.60776444 252.71926117 17.59480286 C249.17765698 17.58082729 245.63615733 17.55620018 242.09460449 17.5324707 C231.75062921 17.46932603 221.40655574 17.42319316 211.0625 17.375 C187.941875 17.25125 164.82125 17.1275 141 17 C141 81.35 141 145.7 141 212 C187.07495224 217.66929622 187.07495224 217.66929622 227.26953125 206.2734375 C237.22080005 194.02959792 238.30204366 180.65211536 239.125 165.4375 C239.21156891 163.93681012 239.29880314 162.43615846 239.38671875 160.93554688 C239.60005198 157.29076884 239.79971512 153.64561102 240 150 C246.27 150 252.54 150 259 150 C259 196.2 259 242.4 259 290 C252.73 290 246.46 290 240 290 C239.90203125 287.85242187 239.8040625 285.70484375 239.703125 283.4921875 C239.59440941 281.36028421 239.48007337 279.22874921 239.36523438 277.09716797 C239.28972636 275.64107918 239.21985659 274.18468456 239.15625 272.72802734 C238.49742094 257.81172567 236.49149765 243.71495811 225.625 232.5625 C201.35057671 218.11343852 169.24672192 228.38171246 141 228 C141 291.36 141 354.72 141 420 C166.03875 419.896875 191.0775 419.79375 216.875 419.6875 C224.77163574 419.66260498 232.66827148 419.63770996 240.80419922 419.61206055 C247.90261407 419.57548236 247.90261407 419.57548236 255.00100708 419.5349884 C258.15474937 419.51710205 261.30839954 419.50745659 264.46218872 419.50288391 C268.49364838 419.49676494 272.52480428 419.4763325 276.55615067 419.44583857 C278.03027987 419.43706967 279.50444891 419.43319369 280.97860312 419.43496072 C292.76924153 419.44480711 303.25473568 418.63217901 312 410 C324.82282245 394.5057562 325.43524371 374.2131894 326.1875 355.0625 C326.26912041 353.20372911 326.35179625 351.34500425 326.43554688 349.48632812 C326.63777397 344.99128022 326.81844656 340.49611756 327 336 C333.27 336 339.54 336 346 336 C346 369.33 346 402.66 346 437 C231.82 437 117.64 437 0 437 C0 433.37 0 429.74 0 426 C1.19496094 425.90203125 2.38992188 425.8040625 3.62109375 425.703125 C12.09694617 424.93291675 19.44261647 424.18646426 27 420 C27.99 419.67 28.98 419.34 30 419 C31.10168984 417.30230766 31.10168984 417.30230766 32 415 C32.515625 413.865625 33.03125 412.73125 33.5625 411.5625 C38.23711707 399.97757944 37.14858544 385.67796548 37.12698364 373.38267517 C37.12813945 371.97727451 37.12973004 370.57187415 37.13171089 369.1664744 C37.13584106 365.35084976 37.13384246 361.5352505 37.13072467 357.71962583 C37.12844479 353.58665707 37.13196295 349.45369241 37.13470459 345.32072449 C37.13913363 337.24278077 37.13819864 329.16484638 37.13529195 321.08690231 C37.13302678 314.51796688 37.13273021 307.94903405 37.13381577 301.38009834 C37.13404561 299.97377581 37.13404561 299.97377581 37.13428011 298.53904273 C37.13459986 296.63400598 37.13492407 294.72896923 37.1352527 292.82393248 C37.13809905 274.99241057 37.13483365 257.16089383 37.12945233 239.32937277 C37.12498433 224.05152914 37.12576184 208.77369311 37.13037109 193.49584961 C37.13573052 175.72336135 37.13782521 157.95087761 37.13475883 140.17838866 C37.1344403 138.2809544 37.13412593 136.38352015 37.13381577 134.48608589 C37.13366149 133.55268319 37.13350721 132.61928048 37.13334826 131.65759284 C37.13248727 125.10117933 37.13393697 118.5447687 37.13629532 111.98835564 C37.13910868 103.99176422 37.13832269 95.99518261 37.13301457 87.99859231 C37.13039837 83.92393703 37.129337 79.84929807 37.13266373 75.77464294 C37.13566979 72.0360264 37.13396303 68.29744111 37.12868617 64.55882735 C37.1270612 62.58457348 37.13028089 60.6103174 37.13374341 58.6360659 C37.81060378 36.61698237 37.81060378 36.61698237 28.265625 17.69140625 C20.31637289 11.75687838 9.56884159 11.31321904 0 11 C0 7.37 0 3.74 0 0 Z " fill="#0D0D19" transform="translate(1052,1665)"/>
<path d="M0 0 C120.12 0 240.24 0 364 0 C364 33.33 364 66.66 364 101 C357.73 101 351.46 101 345 101 C344.89042969 98.3703125 344.78085938 95.740625 344.66796875 93.03125 C344.55147038 90.42613565 344.43106217 87.82122852 344.31030273 85.21630859 C344.22973741 83.43426129 344.15310586 81.65203087 344.08081055 79.86962891 C342.99978726 50.72071656 342.99978726 50.72071656 329 26 C321.38244404 19.65675638 313.73218154 17.71137092 303.93164062 17.68115234 C303.16969391 17.67110672 302.40774719 17.6610611 301.62271118 17.65071106 C299.13389764 17.62011256 296.64519047 17.60290968 294.15625 17.5859375 C292.41889546 17.56720701 290.68154984 17.54763222 288.94421387 17.5272522 C284.39381184 17.47612354 279.84338038 17.43639523 275.29284668 17.39910889 C270.64047073 17.35894785 265.98821517 17.30791095 261.3359375 17.2578125 C252.22404314 17.16128161 243.1120805 17.07680439 234 17 C234.08179014 65.20551845 234.17396719 113.41100733 234.28005161 161.61647876 C234.2925703 167.30909765 234.30500311 173.00171674 234.31738281 178.69433594 C234.31984881 179.82762183 234.3223148 180.96090771 234.32485552 182.1285356 C234.36456646 200.47242289 234.39732118 218.81631632 234.42749982 237.16022149 C234.45862676 255.98630448 234.4972415 274.81236142 234.54279006 293.6384151 C234.57065466 305.25269825 234.59269652 316.86696236 234.60726251 328.48126993 C234.61781418 336.44836957 234.6356468 344.41543231 234.65916704 352.38250414 C234.67251789 356.97730574 234.6826948 361.5720557 234.68421364 366.16687775 C234.68567709 370.3791224 234.69634798 374.59124281 234.71413441 378.80344924 C234.71895766 380.32181524 234.72049261 381.84019629 234.71827881 383.35856834 C234.27662752 402.21339989 234.27662752 402.21339989 242.4296875 418.4921875 C250.42104873 424.95410161 261.16808767 425.42165222 271 426 C271 429.63 271 433.26 271 437 C212.26 437 153.52 437 93 437 C93 433.37 93 429.74 93 426 C94.18335937 425.91363281 95.36671875 425.82726563 96.5859375 425.73828125 C106.76091035 424.88050112 115.70359835 424.02479131 123.4375 416.6875 C127.76524932 409.24377117 129.11902169 401.86166723 129.1386652 393.28026009 C129.14292853 392.29990481 129.14292853 392.29990481 129.14727798 391.29974437 C129.15559127 389.11258729 129.15689053 386.92548341 129.15821838 384.73831177 C129.16278603 383.15333363 129.16778635 381.56835669 129.17318195 379.98338115 C129.18674939 375.6301371 129.19417738 371.27690085 129.20060861 366.9236412 C129.20861867 362.22839698 129.22231437 357.53316896 129.23532104 352.8379364 C129.25707518 344.70382317 129.27522357 336.56970829 129.29092598 328.43558121 C129.31363427 316.67498472 129.34177578 304.91440617 129.37124526 293.15382491 C129.41890939 274.07326099 129.46217678 254.99268973 129.50268555 235.91210938 C129.54204646 217.37662179 129.58347412 198.84114074 129.62768555 180.30566406 C129.63177196 178.59199961 129.63177196 178.59199961 129.63594092 176.84371568 C129.64962049 171.11244012 129.66334075 165.38116465 129.67708123 159.64988923 C129.7910275 112.09993976 129.89784095 64.54997616 130 17 C120.00259159 17.06141173 110.00543991 17.13866115 100.00831032 17.23571491 C95.36542141 17.28030006 90.72261785 17.31958183 86.07958984 17.34643555 C81.59253739 17.37258742 77.1058155 17.41307247 72.61896896 17.46318626 C70.91354889 17.47977504 69.20807175 17.49133878 67.50258255 17.49761391 C55.55035019 17.54600958 44.62229024 17.7383846 35.1015625 25.8125 C23.42982267 37.96152287 21.24710684 55.87747237 20.46484375 71.99609375 C20.40037804 73.24641136 20.40037804 73.24641136 20.33460999 74.52198792 C20.19925817 77.16035009 20.06830935 79.7989091 19.9375 82.4375 C19.84599498 84.23634299 19.75420101 86.03517132 19.66210938 87.83398438 C19.43752543 92.22247597 19.21890832 96.61120699 19 101 C12.73 101 6.46 101 0 101 C0 67.67 0 34.34 0 0 Z " fill="#0D0D19" transform="translate(3061,1665)"/>
<path d="M0 0 C58.74 0 117.48 0 178 0 C178 3.63 178 7.26 178 11 C176.81664062 11.08636719 175.63328125 11.17273437 174.4140625 11.26171875 C163.79100091 12.15624504 155.2831318 13.2789035 147.0625 20.625 C142.62797418 27.88149679 141.81094511 35.26980721 141.43470764 43.66496277 C141.39382587 44.56326693 141.35294411 45.46157109 141.3108235 46.38709658 C140.73881654 60.65185631 140.82199861 74.93707051 140.79939139 89.21102631 C140.7912805 93.662651 140.77762076 98.1142594 140.76467896 102.56587219 C140.74306546 110.25445855 140.72486686 117.94304668 140.70907402 125.63164711 C140.68623594 136.74769111 140.65811354 147.86371695 140.62875474 158.97974541 C140.5812482 177.02042442 140.53793887 195.06111092 140.49731445 213.10180664 C140.45787283 230.61320578 140.41642625 248.1245983 140.37231445 265.63598633 C140.36822804 267.25861012 140.36822804 267.25861012 140.36405908 268.9140142 C140.35037818 274.34153289 140.33665819 279.76905149 140.32291877 285.19657004 C140.20922051 330.13103285 140.10235306 375.06551001 140 420 C158.17699862 419.96274858 176.35377559 419.90276377 194.53060532 419.81609726 C202.97141568 419.77637537 211.41213374 419.74394823 219.85302734 419.72900391 C227.21455484 419.71595172 234.57587864 419.68889668 241.93729138 419.64538693 C245.83112548 419.62285182 249.72470911 419.6070845 253.6186142 419.60811615 C257.2926759 419.60886751 260.9661856 419.59072849 264.64010429 419.55883217 C266.61300197 419.54641053 268.58599275 419.55335993 270.55891418 419.56114197 C279.92206315 419.4528465 288.27194757 417.9438817 296.3125 412.9375 C310.16409116 397.79738873 312.12323348 378.46342445 312.5625 358.75 C312.62304341 356.34887395 312.6867744 353.94782588 312.75390625 351.546875 C312.78979858 349.98211426 312.78979858 349.98211426 312.82641602 348.38574219 C313.03875385 344.24410909 313.54203243 340.12170812 314 336 C320.27 336 326.54 336 333 336 C333 369.33 333 402.66 333 437 C223.11 437 113.22 437 0 437 C0 433.37 0 429.74 0 426 C1.19496094 425.90203125 2.38992188 425.8040625 3.62109375 425.703125 C17.88087802 424.5708161 17.88087802 424.5708161 29.875 417.375 C37.10684811 405.88912359 36.14910581 391.60643648 36.13371277 378.52874756 C36.1355845 377.09038841 36.13788664 375.65202977 36.14057809 374.21367192 C36.14665767 370.28832884 36.14656706 366.36300717 36.14538372 362.43766046 C36.14517873 358.19348849 36.15070771 353.94932322 36.15544128 349.70515442 C36.16372711 341.40039951 36.16649518 333.09565169 36.16705366 324.79089299 C36.16752977 318.03689689 36.16958926 311.28290313 36.17275429 304.52890778 C36.18155495 285.35708376 36.18617454 266.18526532 36.18542381 247.01343927 C36.18538386 245.9811381 36.1853439 244.94883693 36.18530273 243.88525391 C36.18524141 242.33489983 36.18524141 242.33489983 36.18517885 240.75322548 C36.18477247 224.0060453 36.19434153 207.25888762 36.2084411 190.51171395 C36.22282243 173.29329273 36.22971033 156.07488247 36.22884732 138.85645509 C36.22851598 129.19866374 36.23123572 119.54089597 36.24202538 109.88311005 C36.25115348 101.66026902 36.25328668 93.43746227 36.24651595 85.21461836 C36.24326248 81.02440827 36.24315141 76.83426387 36.2518692 72.64406013 C36.25978726 68.79849532 36.25824928 64.9530477 36.24958507 61.10748556 C36.24734724 59.07810469 36.25483679 57.04872002 36.26282471 55.01935363 C36.3597411 36.00612107 36.3597411 36.00612107 29 19 C21.0724367 11.69556394 10.18372562 11.7023259 0 11 C0 7.37 0 3.74 0 0 Z " fill="#0D0D19" transform="translate(1457,1665)"/>
<path d="M0 0 C2.6766697 -0.00968492 5.35256268 -0.04079775 8.02905273 -0.07226562 C27.00388348 -0.18908497 48.1655195 1.32900518 62.51147461 15.24023438 C68.69719983 21.76583461 71.54132533 29.14135319 71.88647461 38.11523438 C70.99870303 60.10465359 56.60799829 79.21939728 42.02319336 94.57617188 C39.97681922 96.74666514 38.04464203 98.95043347 36.13647461 101.24023438 C28.01918154 110.58094721 18.19409911 118.60035766 8.51147461 126.24023438 C7.0902832 127.37138672 7.0902832 127.37138672 5.64038086 128.52539062 C-70.63403826 188.28178268 -169.27049008 226.05569739 -324.48852539 233.24023438 C-326.16130772 232.93908959 -327.83184247 232.62009038 -329.48852539 232.24023438 C-329.88555664 233.47773438 -330.28258789 234.71523437 -330.69165039 235.99023438 C-332.27223844 240.73570014 -334.09688172 245.36156935 -335.95288086 250.00488281 C-351.35854207 288.77355399 -363.62124128 336.3411088 -347.93774414 376.98632812 C-340.60071415 393.46003698 -330.27985144 404.30967188 -313.48852539 411.24023438 C-277.11622037 423.44911998 -230.74909044 411.67971001 -197.49243164 395.34179688 C-187.41731277 390.2557683 -177.58311019 384.95131892 -168.48852539 378.24023438 C-167.4740332 377.50804688 -166.45954102 376.77585937 -165.41430664 376.02148438 C-140.50387324 357.69808994 -115.4864311 331.14478906 -110.01977539 299.52929688 C-109.01143182 291.34796379 -109.37883442 283.84471071 -114.11352539 276.86523438 C-118.98159965 271.00464012 -126.01822759 268.20490275 -133.48852539 267.24023438 C-154.08234499 265.64306388 -173.22428745 271.6776368 -192.39160156 278.56933594 C-194.48852539 279.24023438 -194.48852539 279.24023438 -196.48852539 279.24023438 C-197.47852539 275.94023437 -198.46852539 272.64023438 -199.48852539 269.24023438 C-164.73040256 257.03192525 -164.73040256 257.03192525 -146.48852539 256.24023438 C-145.74473633 256.18867188 -145.00094727 256.13710937 -144.23461914 256.08398438 C-131.79182072 255.59201211 -119.48051997 258.30470879 -109.30102539 265.49023438 C-102.34209448 272.29452237 -99.31752643 280.02989563 -99.05664062 289.74658203 C-98.98919697 318.19607443 -114.73171981 341.8526276 -133.97827148 361.67871094 C-135.44217753 363.19231311 -136.88223504 364.7257934 -138.32055664 366.26367188 C-150.55896518 379.14709471 -165.14136643 389.38748271 -180.48852539 398.24023438 C-181.20169922 398.65370117 -181.91487305 399.06716797 -182.6496582 399.49316406 C-207.01475664 413.42678739 -234.5123694 422.46066791 -262.48852539 425.24023438 C-263.49786133 425.34980469 -264.50719727 425.459375 -265.54711914 425.57226562 C-284.75438781 427.37069902 -304.58571177 427.29512124 -322.48852539 419.24023438 C-323.82077148 418.6446875 -323.82077148 418.6446875 -325.17993164 418.03710938 C-343.4159761 409.00987826 -354.23147001 392.77244344 -360.60571289 373.93945312 C-375.0011622 327.54827888 -359.25737905 275.02839271 -340.48852539 232.24023438 C-345.65925366 230.6875511 -350.86745928 229.44147115 -356.12939453 228.23681641 C-383.20196298 221.98725694 -409.40823407 212.21824917 -429.48852539 192.24023438 C-430.2580957 191.50546875 -431.02766602 190.77070313 -431.82055664 190.01367188 C-444.31157133 177.28858366 -450.46996297 159.87453425 -450.48852539 142.24023438 C-449.35019625 122.24703532 -440.85388825 106.51791444 -426.54321289 92.86132812 C-407.72238153 76.26231498 -383.54203343 67.99784249 -359.36352539 62.99023438 C-358.63786377 62.83901123 -357.91220215 62.68778809 -357.16455078 62.53198242 C-342.4075902 59.69157625 -327.60502224 58.85958272 -312.61352539 58.92773438 C-311.35110016 58.9304686 -311.35110016 58.9304686 -310.06317139 58.93325806 C-279.44492618 59.04398203 -249.85622593 63.62328734 -220.5871582 72.65527344 C-219.89460938 72.84831055 -219.20206055 73.04134766 -218.48852539 73.24023438 C-217.66408936 73.48386719 -216.83965332 73.7275 -215.99023438 73.97851562 C-212.77516355 74.31486343 -211.8173782 73.57753367 -209.25805664 71.66210938 C-208.46447754 71.08364258 -207.67089844 70.50517578 -206.85327148 69.90917969 C-206.01103027 69.27592773 -205.16878906 68.64267578 -204.30102539 67.99023438 C-202.50062988 66.68402001 -200.69718396 65.38200085 -198.89086914 64.08398438 C-197.53131104 63.10558594 -197.53131104 63.10558594 -196.14428711 62.10742188 C-189.50097987 57.43670908 -182.50145971 53.32604445 -175.48852539 49.24023438 C-174.7755127 48.82322266 -174.0625 48.40621094 -173.32788086 47.9765625 C-144.21880673 31.07154187 -113.18166287 18.31214677 -80.48852539 10.24023438 C-79.54380371 10.0061084 -78.59908203 9.77198242 -77.62573242 9.53076172 C-52.13272798 3.33954046 -26.21555921 0.05710932 0 0 Z M-45.48852539 13.24023438 C-46.55200195 13.41184082 -47.61547852 13.58344727 -48.71118164 13.76025391 C-104.64628412 23.08554885 -156.36472275 45.4484465 -202.48852539 78.24023438 C-199.83499961 81.5038774 -196.40447556 82.66191262 -192.61352539 84.17773438 C-177.51197616 90.51982287 -163.18534061 98.88977547 -150.48852539 109.24023438 C-149.57200195 109.95566406 -148.65547852 110.67109375 -147.71118164 111.40820312 C-142.67464388 115.39928845 -137.87029094 119.60177509 -133.23852539 124.05273438 C-131.83860352 125.39271484 -131.83860352 125.39271484 -130.41040039 126.75976562 C-128.48852539 129.24023438 -128.48852539 129.24023438 -128.57446289 131.45117188 C-129.80806285 133.86565384 -131.13337354 134.92412011 -133.48852539 136.24023438 C-136.8128876 135.13211364 -137.41537871 134.3848681 -139.55102539 131.74023438 C-158.35457055 109.78329965 -185.81681097 96.07579067 -212.48852539 86.24023438 C-225.54958076 96.79569953 -238.17428978 107.58084378 -250.01318359 119.50415039 C-251.81068344 121.31245045 -253.61874855 123.10969415 -255.42797852 124.90625 C-262.24129206 131.71183607 -268.51877518 138.67480882 -274.48852539 146.24023438 C-275.35145549 147.2681692 -276.21986083 148.29158157 -277.09790039 149.30664062 C-291.59960553 166.21647563 -303.83032953 184.96322384 -314.92602539 204.24023438 C-315.42239502 205.10044189 -315.91876465 205.96064941 -316.43017578 206.84692383 C-319.45844579 212.1819546 -322.11233391 217.58450588 -324.48852539 223.24023438 C-235.04340637 231.19111494 -137.82226597 204.60692724 -52.12182617 155.79736328 C-49.53287132 154.2664571 -46.93190054 152.75790277 -44.32836914 151.25195312 C-27.14256942 141.22469233 -10.87148469 129.85776972 4.51147461 117.24023438 C5.04836914 116.80630371 5.58526367 116.37237305 6.13842773 115.92529297 C28.65844732 97.65294097 58.15245762 71.79187875 61.78491211 40.91601562 C62.07456633 34.35423358 60.27525395 29.20338367 56.94897461 23.61523438 C46.03649161 12.98255863 30.19227446 10.11566758 15.46850586 10.03710938 C14.15917587 10.02658791 14.15917587 10.02658791 12.82339478 10.01585388 C9.99020246 9.99831046 7.1572194 9.9919928 4.32397461 9.99023438 C2.87161911 9.98922226 2.87161911 9.98922226 1.3899231 9.9881897 C-14.42742947 10.00569527 -29.84764482 10.69387119 -45.48852539 13.24023438 Z M-417.48852539 99.24023438 C-418.3837793 99.92279297 -418.3837793 99.92279297 -419.29711914 100.61914062 C-431.67348808 110.29420855 -438.39150834 124.99850066 -440.48852539 140.24023438 C-441.24694682 157.24572818 -434.26691218 171.66520748 -423.31274414 184.32226562 C-402.77557533 206.24933095 -369.54168744 217.32249074 -340.48852539 221.24023438 C-338.48933233 221.29704205 -336.48677477 221.32389699 -334.48852539 221.24023438 C-334.19308838 220.68376221 -333.89765137 220.12729004 -333.59326172 219.55395508 C-316.44549381 187.38009782 -296.58057827 157.61458329 -272.48852539 130.24023438 C-271.66352539 129.30179688 -270.83852539 128.36335938 -269.98852539 127.39648438 C-257.78226952 113.81702472 -244.98578225 100.38211906 -230.48852539 89.24023438 C-228.13361215 87.26393793 -225.81180494 85.25374332 -223.48852539 83.24023438 C-227.63572317 80.47543586 -231.94324473 79.60297983 -236.73852539 78.36523438 C-237.75978516 78.10129883 -238.78104492 77.83736328 -239.83325195 77.56542969 C-246.92633762 75.78074586 -254.03524125 74.2568139 -261.23852539 72.99023438 C-262.08576172 72.8395752 -262.93299805 72.68891602 -263.8059082 72.53369141 C-279.74233257 69.87762068 -295.59880539 68.85879431 -311.73852539 68.92773438 C-312.63139252 68.92955719 -313.52425964 68.93138 -314.44418335 68.93325806 C-349.90078696 69.05473763 -389.71221646 75.12025486 -417.48852539 99.24023438 Z " fill="#000000" transform="translate(2686.488525390625,2183.759765625)"/>
<path d="M0 0 C0.87355133 -0.00971832 1.74710266 -0.01943665 2.64712524 -0.02944946 C22.91629926 -0.22062092 44.40370494 1.43787477 60.03125 15.96875 C66.43305101 22.87265305 68.40546048 31.02074696 68.25 40.3125 C67.11115052 51.4732249 62.66530469 60.69252364 57.25 70.3125 C56.7034375 71.29089844 56.156875 72.26929687 55.59375 73.27734375 C48.15811806 85.68828824 37.81514695 95.92210784 27.6875 106.125 C26.82560059 106.99624512 25.96370117 107.86749023 25.07568359 108.76513672 C19.10928178 114.7021752 12.84810541 120.09140152 6.25 125.3125 C5.58154053 125.85092529 4.91308105 126.38935059 4.22436523 126.9440918 C-16.29584936 143.40269819 -38.75284132 157.60154986 -61.75 170.3125 C-62.72549805 170.85181152 -63.70099609 171.39112305 -64.70605469 171.94677734 C-133.09086218 209.37314243 -212.54767477 232.99191516 -290.75 234.3125 C-291.56774902 234.32764648 -292.38549805 234.34279297 -293.22802734 234.35839844 C-321.87669775 234.80560784 -321.87669775 234.80560784 -332.75 232.3125 C-332.99363281 233.0859375 -333.23726562 233.859375 -333.48828125 234.65625 C-334.80022787 238.45805198 -336.27059935 242.16793001 -337.77050781 245.8984375 C-345.68257168 265.65542376 -351.77272279 285.39481583 -355.75 306.3125 C-355.9975 307.55386719 -356.245 308.79523437 -356.5 310.07421875 C-361.07876448 337.4514147 -359.07178855 367.55105014 -343.75 391.3125 C-333.69236106 404.86750366 -319.43196226 411.88952859 -303.03515625 414.80859375 C-256.32196514 421.05685498 -205.67757837 403.0515059 -168.375 375.75 C-163.7320453 372.18285187 -159.34792931 368.39690829 -155.05078125 364.421875 C-152.9786736 362.52214982 -150.85158869 360.73023619 -148.6875 358.9375 C-143.72597552 354.60363826 -139.78396165 349.49607188 -135.75 344.3125 C-134.61691406 342.90291016 -134.61691406 342.90291016 -133.4609375 341.46484375 C-121.52724498 326.22990639 -112.55278068 308.69672933 -113.26953125 288.95703125 C-114.15967671 282.20495224 -116.54092717 276.74508377 -121.875 272.375 C-136.44967792 263.57401676 -155.14311417 266.85781277 -170.81884766 270.54101562 C-179.24157355 272.75789167 -187.46201248 275.69646558 -195.65307617 278.64160156 C-197.75 279.3125 -197.75 279.3125 -199.75 279.3125 C-200.74 276.0125 -201.73 272.7125 -202.75 269.3125 C-167.99187717 257.10419087 -167.99187717 257.10419087 -149.75 256.3125 C-149.00621094 256.2609375 -148.26242187 256.209375 -147.49609375 256.15625 C-134.17650764 255.62961068 -120.93965269 258.48491604 -110.9375 267.5625 C-103.16240143 275.80663004 -102.28103147 285.93643274 -102.48046875 296.734375 C-103.74532616 326.51771694 -127.76866867 353.55940062 -148.21826172 372.91699219 C-180.08917802 401.95335775 -222.98346033 420.77745387 -265.75 425.3125 C-266.76449219 425.42335938 -267.77898437 425.53421875 -268.82421875 425.6484375 C-293.1286761 427.90506215 -319.55124655 427.28973468 -339.3359375 411.2109375 C-341.88673758 408.98185995 -344.33250285 406.68500143 -346.75 404.3125 C-347.69166016 403.40757812 -347.69166016 403.40757812 -348.65234375 402.484375 C-358.65020003 392.05577207 -363.54724149 378.11005218 -366.75 364.3125 C-366.99621094 363.25546875 -367.24242187 362.1984375 -367.49609375 361.109375 C-375.38016136 317.82856244 -361.13872712 271.52962925 -343.75 232.3125 C-348.55469471 230.86649065 -353.36671406 229.7154139 -358.2722168 228.66503906 C-391.70607577 221.44526796 -425.52814827 207.51402278 -444.9375 177.6875 C-449.77123167 169.23507304 -453.262239 159.06771997 -453.75 149.3125 C-453.80027344 148.52230469 -453.85054687 147.73210938 -453.90234375 146.91796875 C-454.52841037 129.81382882 -448.942541 113.40665805 -437.3125 100.8125 C-435.49533306 98.93413958 -433.63547466 97.12472601 -431.75 95.3125 C-431.00878906 94.57515625 -430.26757812 93.8378125 -429.50390625 93.078125 C-395.29069014 60.68542864 -342.43151064 58.2040802 -298.10491943 59.2388916 C-273.47816762 60.00865711 -248.09334207 64.53537101 -224.82421875 72.65942383 C-221.75256073 73.68790477 -219.40733613 74.44376682 -216.1875 73.80078125 C-212.74507353 71.69891509 -209.50010601 69.38604787 -206.25 67 C-157.18571077 31.84134719 -101.25394745 10.93738436 -41.75 2.3125 C-40.8537793 2.17827637 -39.95755859 2.04405273 -39.03417969 1.90576172 C-26.09610054 0.04738308 -13.04486589 0.08555677 0 0 Z M-205.75 78.3125 C-203.33438332 81.06639336 -200.86813705 82.36840415 -197.55078125 83.87890625 C-196.51405273 84.35924316 -195.47732422 84.83958008 -194.40917969 85.33447266 C-193.30477539 85.84284668 -192.20037109 86.3512207 -191.0625 86.875 C-169.2954216 97.12472761 -146.55617618 110.81947669 -131.75 130.3125 C-132.4375 132.1875 -132.4375 132.1875 -133.75 134.3125 C-135.39380989 135.0336874 -137.06032588 135.70651025 -138.75 136.3125 C-139.27207031 135.69503906 -139.79414062 135.07757812 -140.33203125 134.44140625 C-145.96439112 127.96073999 -151.91996287 122.50404061 -158.75 117.3125 C-159.27190918 116.91562988 -159.79381836 116.51875977 -160.33154297 116.10986328 C-172.83511208 106.6863961 -186.08509515 98.78901755 -200.3125 92.25 C-201.13314941 91.8677124 -201.95379883 91.4854248 -202.79931641 91.09155273 C-207.841954 88.84815028 -212.18616393 87.1496834 -217.75 87.3125 C-220.61859212 88.85793386 -222.80075093 90.92437496 -225.125 93.1875 C-225.77782959 93.78884766 -226.43065918 94.39019531 -227.10327148 95.00976562 C-228.40878145 96.21460394 -229.70614208 97.42834089 -230.99462891 98.65136719 C-233.22105616 100.75826719 -235.51450513 102.78418717 -237.8125 104.8125 C-239.46109294 106.3094665 -241.10664138 107.80978919 -242.75 109.3125 C-243.57612793 110.06297607 -243.57612793 110.06297607 -244.41894531 110.82861328 C-253.54744473 119.0717279 -253.54744473 119.0717279 -261.86328125 128.11328125 C-263.93728624 130.53080673 -266.11108576 132.83063772 -268.30224609 135.14160156 C-275.28073845 142.52350979 -281.63995174 150.20338582 -287.75 158.3125 C-288.29269531 159.02535156 -288.83539062 159.73820312 -289.39453125 160.47265625 C-300.84853619 175.54643702 -310.90897399 191.2387461 -320.375 207.625 C-321.13901123 208.94153564 -321.13901123 208.94153564 -321.91845703 210.28466797 C-322.62784424 211.53014404 -322.62784424 211.53014404 -323.3515625 212.80078125 C-323.76744629 213.52821533 -324.18333008 214.25564941 -324.61181641 215.00512695 C-325.94244834 217.70263928 -326.85311145 220.44487789 -327.75 223.3125 C-283.29626028 227.26404458 -238.00391701 221.77103766 -194.75 211.3125 C-193.57759766 211.03067871 -192.40519531 210.74885742 -191.19726562 210.45849609 C-151.98580885 200.8778231 -114.84713139 186.31164942 -78.75 168.3125 C-77.76370605 167.82136719 -76.77741211 167.33023438 -75.76123047 166.82421875 C-49.90551206 153.86001531 -25.36212135 138.37184524 -2.75 120.3125 C-1.82058594 119.57644531 -0.89117188 118.84039063 0.06640625 118.08203125 C7.07060432 112.45276822 13.73702819 106.49688214 20.25 100.3125 C20.78415527 99.80702637 21.31831055 99.30155273 21.86865234 98.78076172 C38.48782413 82.94192549 57.12598983 62.22717587 58.33984375 38.16796875 C58.14228798 31.8891311 56.42676742 27.22268759 52.1875 22.5625 C41.15435245 12.57021543 25.69079547 10.18870019 11.328125 10.109375 C10.47912125 10.10231537 9.63011749 10.09525574 8.75538635 10.08798218 C-67.07826201 9.60215945 -145.1437246 31.07796497 -205.75 78.3125 Z M-358.75 72.3125 C-359.59675293 72.48410645 -360.44350586 72.65571289 -361.31591797 72.83251953 C-388.84427299 78.64793 -418.68056791 89.67975212 -434.75 114.3125 C-442.55127455 127.73254968 -446.04780138 140.79850082 -442.625 156.3125 C-436.69557602 177.36744533 -421.28058659 191.82078177 -402.75 202.3125 C-384.17201259 212.33101955 -359.13563265 222.5490842 -337.75 221.3125 C-337.44932617 220.75079102 -337.14865234 220.18908203 -336.83886719 219.61035156 C-314.95779031 178.84175405 -289.02925301 142.40118359 -256.27050781 109.64770508 C-254.74513287 108.12012584 -253.22799328 106.58466418 -251.7109375 105.04882812 C-246.14052373 99.44779413 -240.44850081 94.24019789 -234.22265625 89.35424805 C-231.55927407 87.15501175 -229.15684596 84.7874287 -226.75 82.3125 C-239.29227689 78.71990481 -251.82168327 75.2305368 -264.6875 73 C-265.52289307 72.85336914 -266.35828613 72.70673828 -267.21899414 72.55566406 C-283.10751227 69.95382256 -298.91511232 68.93129415 -315 69 C-315.89286713 69.00182281 -316.78573425 69.00364563 -317.70565796 69.00552368 C-331.55919993 69.05298797 -345.13273926 69.54256703 -358.75 72.3125 Z " fill="#000000" transform="translate(1500.75,2183.6875)"/>
<path d="M0 0 C3.67662922 2.99260518 6.17909455 5.66228365 7.6875 10.1875 C7.78148229 11.99804127 7.81741987 13.81202781 7.8125 15.625 C7.81507813 16.57246094 7.81765625 17.51992187 7.8203125 18.49609375 C7.70159891 20.90178967 7.30772737 22.87689127 6.6875 25.1875 C7.24735596 25.35354736 7.80721191 25.51959473 8.3840332 25.69067383 C10.9257604 26.45058252 13.46280445 27.22510201 16 28 C16.88107422 28.26103516 17.76214844 28.52207031 18.66992188 28.79101562 C19.51748047 29.05205078 20.36503906 29.31308594 21.23828125 29.58203125 C22.01856689 29.81768799 22.79885254 30.05334473 23.6027832 30.29614258 C25.90803803 31.28179492 27.13156865 32.23144603 28.6875 34.1875 C29.39764264 38.18205234 28.98405153 39.75193994 26.6875 43.125 C24.56147073 45.44921844 22.23285112 47.42681921 19.8125 49.4375 C13.07600205 55.19159199 7.20946357 62.7596153 6.4765625 71.78515625 C6.28325044 77.30942005 6.39332501 81.53021811 9.6875 86.1875 C15.50238927 92.17341543 22.62423825 93.37713766 30.6875 93.5625 C74.08115782 93.05241502 118.13635626 79.05581982 157.36621094 61.33642578 C158.28047852 60.92634277 159.19474609 60.51625977 160.13671875 60.09375 C160.94455811 59.72572266 161.75239746 59.35769531 162.5847168 58.97851562 C164.6875 58.1875 164.6875 58.1875 167.6875 58.1875 C167.72488281 57.28128906 167.76226563 56.37507813 167.80078125 55.44140625 C168.73447987 38.14052013 168.73447987 38.14052013 173.6875 33.1875 C178.92348725 32.46529486 181.65888807 32.76459677 185.9375 35.9375 C188.13022922 37.73699123 189.97471934 39.50754441 191.875 41.625 C192.473125 42.140625 193.07125 42.65625 193.6875 43.1875 C197.50394508 42.77903064 200.45291974 41.45894177 203.8203125 39.67578125 C204.79226563 39.16466797 205.76421875 38.65355469 206.765625 38.12695312 C207.77109375 37.59005859 208.7765625 37.05316406 209.8125 36.5 C210.79476562 35.98244141 211.77703125 35.46488281 212.7890625 34.93164062 C214.76692368 33.88675738 216.74163671 32.83589296 218.71313477 31.77905273 C220.73607575 30.69659749 222.76551368 29.62621596 224.80053711 28.56665039 C225.78546143 28.04707764 226.77038574 27.52750488 227.78515625 26.9921875 C229.1155896 26.29778564 229.1155896 26.29778564 230.47290039 25.58935547 C233.484338 23.68309654 234.87572707 21.20712156 236.6875 18.1875 C241.33734623 14.94342124 246.14788811 14.33439977 251.6875 15.1875 C253.6875 17.1875 253.6875 17.1875 254.4375 20.4375 C253.6875 24.1875 253.6875 24.1875 251.453125 25.98046875 C248.90724157 27.49433446 246.34945609 28.8897964 243.6875 30.1875 C244.07959785 34.59860081 245.01390904 38.24246186 246.625 42.375 C252.22587734 57.20204984 252.01777083 72.57283126 245.6875 87.1875 C287.14181285 103.42245902 334.11248219 83.89776617 372.5625 67.375 C373.60873535 66.93124023 374.6549707 66.48748047 375.73291016 66.03027344 C380.98680072 63.71281583 384.9353508 61.67211295 388.6875 57.1875 C389.52410156 56.24390625 390.36070312 55.3003125 391.22265625 54.328125 C392.91384512 52.39384407 394.60132381 50.45631323 396.28515625 48.515625 C398.57507683 46.29644994 399.58200603 45.50306983 402.6875 45.1875 C406.73492146 50.58406194 406.73492146 50.58406194 406.53125 53.17578125 C405.48010975 55.68197212 404.16388024 56.83349858 402.125 58.625 C395.28063081 65.18572866 387.98523898 75.23272031 387.5 84.9375 C387.31742257 88.03915792 387.31742257 88.03915792 388.6875 89.1875 C395.26125619 89.75345252 399.32846297 88.42157449 405.0625 85.3125 C405.77277344 84.94769531 406.48304688 84.58289062 407.21484375 84.20703125 C410.02044777 82.74300638 412.43754917 81.43745083 414.6875 79.1875 C414.048125 78.115 413.40875 77.0425 412.75 75.9375 C407.93280303 66.21739081 409.54441954 55.63779017 412.43359375 45.59375 C415.18477552 37.67034651 420.18057228 30.90844333 427.5 26.625 C433.48554823 24.05133232 439.96757635 24.28085878 446.0625 26.3125 C451.09961736 29.91044097 454.50847809 34.05658605 455.6875 40.1875 C456.30744048 53.49237649 448.04856273 63.71259328 439.6875 73.1875 C438.98367188 74.00089844 438.27984375 74.81429687 437.5546875 75.65234375 C435.94366774 77.50795153 434.32234586 79.35289805 432.6875 81.1875 C435.35295164 81.8387183 438.01969056 82.48357161 440.6875 83.125 C441.43128906 83.30740234 442.17507813 83.48980469 442.94140625 83.67773438 C461.64216842 88.14965576 482.02228458 87.60631243 500.6875 83.1875 C501.56680176 82.98302246 502.44610352 82.77854492 503.35205078 82.56787109 C518.66531386 78.894268 533.15825883 73.50976696 547.69555664 67.54345703 C548.38108612 67.2638916 549.0666156 66.98432617 549.7729187 66.69628906 C551.64246123 65.93159226 553.50825724 65.15775408 555.3737793 64.38330078 C558.50639896 63.25285275 561.39246543 62.61304988 564.6875 62.1875 C565.6775 65.1575 566.6675 68.1275 567.6875 71.1875 C528.28430261 88.63180295 479.16985756 108.01398128 435.80078125 92.91015625 C433.63436913 92.07318852 431.48098126 91.20049316 429.3515625 90.2734375 C426.67518407 89.18247972 424.57691259 88.36552068 421.6875 88.1875 C419.04774571 89.44930409 419.04774571 89.44930409 416.5 91.375 C407.24839967 97.63858347 397.93054705 101.19990708 386.6875 100.1875 C383.02849931 98.79042701 380.13843872 97.28342259 377.6875 94.1875 C376.65914637 91.10243912 376.55381566 88.9180728 376.5625 85.6875 C376.55992187 84.7284375 376.55734375 83.769375 376.5546875 82.78125 C376.6875 80.1875 376.6875 80.1875 377.6875 77.1875 C375.96080078 77.93193359 375.96080078 77.93193359 374.19921875 78.69140625 C337.51248621 94.4014925 291.90386458 112.34457161 251.6875 101.1875 C250.44464559 100.68859393 249.20999671 100.16876343 247.984375 99.62890625 C244.50342078 98.1182324 241.42999274 96.83322779 237.6875 96.1875 C234.59835623 97.46182673 232.55105392 99.09061286 230.015625 101.25390625 C222.47922923 107.51316112 211.15910517 107.20139943 201.82617188 106.48486328 C192.762975 105.22470646 185.16644835 99.23692277 179.6875 92.1875 C174.90606871 85.12139287 169.6875 76.98806827 169.6875 68.1875 C169.11870117 68.45788086 168.54990234 68.72826172 167.96386719 69.00683594 C126.55526412 88.4634974 60.26689743 115.3989179 14.44140625 102.21875 C6.11221417 99.09973339 0.72233991 94.1130784 -3.3125 86.1875 C-6.18942385 77.76852652 -4.93629232 67.74536768 -1.5703125 59.70703125 C2.35219884 51.84982686 7.76554549 45.61996783 13.6875 39.1875 C9.3975 38.1975 5.1075 37.2075 0.6875 36.1875 C-0.653125 37.775625 -1.99375 39.36375 -3.375 41 C-35.424549 76.86956378 -94.97994825 93.99428278 -141.3125 97.1875 C-161.73323053 98.19008318 -184.43732171 98.5335834 -202.66796875 87.80078125 C-206.87053813 86.82618244 -209.61472345 88.8987748 -213.25 90.9375 C-220.12776252 94.66215197 -225.85618942 97.47159807 -233.875 97.5 C-234.96941406 97.51675781 -236.06382812 97.53351562 -237.19140625 97.55078125 C-241.41512531 97.05915938 -243.98631139 95.41896085 -247.0625 92.5625 C-249.97157505 87.0352574 -249.79344926 80.62407401 -248.21484375 74.69140625 C-245.16251236 66.22151698 -240.68555434 59.12751102 -234.6875 52.5 C-234.2325415 51.9949292 -233.77758301 51.4898584 -233.30883789 50.96948242 C-230.55122287 48.06701894 -228.14197925 46.36952338 -224.3125 45.1875 C-223.47344435 46.30823862 -222.64142169 47.43424547 -221.8125 48.5625 C-221.3484375 49.18898438 -220.884375 49.81546875 -220.40625 50.4609375 C-219.3125 52.1875 -219.3125 52.1875 -219.3125 54.1875 C-220.3025 54.826875 -221.2925 55.46625 -222.3125 56.125 C-230.60214645 61.85881225 -236.09661087 71.46382864 -238.3125 81.1875 C-238.36888181 83.18670511 -238.38253002 85.18872643 -238.3125 87.1875 C-229.04578887 86.21908694 -221.57906145 83.42744603 -213.3125 79.1875 C-213.8075 78.053125 -214.3025 76.91875 -214.8125 75.75 C-218.59639227 64.36228611 -217.17108274 51.22921917 -212.05859375 40.57421875 C-207.92600751 32.97341299 -202.57366878 27.97034084 -194.3125 25.1875 C-187.64620489 24.24086617 -182.41441743 24.76747695 -176.90234375 28.7578125 C-173.04978599 32.22227476 -171.66930524 36.18097717 -171.07421875 41.1953125 C-170.64833317 53.34425896 -177.50650611 62.5075526 -185.3125 71.1875 C-188.19320014 74.01728939 -191.15907915 76.66628671 -194.3125 79.1875 C-191.64587742 81.85412258 -188.73589294 82.3421913 -185.1875 83.25 C-184.548125 83.42337891 -183.90875 83.59675781 -183.25 83.77539062 C-136.39091399 96.05472943 -80.30301619 77.56366368 -39.51708984 54.48828125 C-23.46272957 45.68142973 -23.46272957 45.68142973 -10.9375 32.875 C-10.40125 31.988125 -9.865 31.10125 -9.3125 30.1875 C-9.77140625 29.8471875 -10.2303125 29.506875 -10.703125 29.15625 C-16.53887206 24.54650022 -19.77603769 19.49294343 -21.3125 12.1875 C-21.70267974 6.92007358 -21.0504974 3.71572648 -18.3125 -0.8125 C-13.10247031 -6.02252969 -5.7167646 -3.12804101 0 0 Z M-11.3125 7.1875 C-10.87930729 12.60240891 -9.74656135 15.94542422 -6.3125 20.1875 C-5.3225 20.5175 -4.3325 20.8475 -3.3125 21.1875 C-1.95027693 20.03733746 -1.95027693 20.03733746 -2 16.9375 C-2.36260965 12.58618421 -3.12674021 11.11495495 -6.3125 8.1875 C-8.94710948 7.30806596 -8.94710948 7.30806596 -11.3125 7.1875 Z M-202.66796875 44.29296875 C-205.63250421 49.99729149 -206.46581242 54.73288527 -206.5 61.1875 C-206.51417969 62.404375 -206.52835938 63.62125 -206.54296875 64.875 C-206.32836625 67.9594563 -205.94008774 69.61423876 -204.3125 72.1875 C-194.90977617 69.19495137 -187.94277354 59.50519064 -183.3359375 51.18359375 C-181.30358322 47.2197272 -180.92689923 44.73758914 -181.3125 40.1875 C-182.63411427 37.11876102 -182.63411427 37.11876102 -185.3125 35.1875 C-193.38213974 33.57357205 -198.35339614 37.59108219 -202.66796875 44.29296875 Z M426.6875 40.1875 C421.32354538 47.50455683 418.86519776 56.14217537 419.6875 65.1875 C420.53209861 67.95075325 421.56323606 70.51737313 422.6875 73.1875 C432.07350832 69.29681271 440.3828045 58.05248229 444.6875 49.1875 C446.01364916 45.13307524 446.15775401 42.23997327 444.375 38.25 C442.08070275 35.44585892 441.13457559 35.24009713 437.5 34.8125 C432.61755852 35.29274015 430.08868379 36.70514237 426.6875 40.1875 Z M226.90625 38.1640625 C226.15069824 38.58510254 225.39514648 39.00614258 224.61669922 39.43994141 C223.81506348 39.89288574 223.01342773 40.34583008 222.1875 40.8125 C221.37684082 41.2667334 220.56618164 41.7209668 219.73095703 42.18896484 C213.98773017 45.41945818 208.29316615 48.72269127 202.6875 52.1875 C203.06261719 52.62320313 203.43773438 53.05890625 203.82421875 53.5078125 C204.33597656 54.10335937 204.84773438 54.69890625 205.375 55.3125 C206.20451172 56.27542969 206.20451172 56.27542969 207.05078125 57.2578125 C208.42117126 58.87349905 209.74748668 60.52643054 211.0625 62.1875 C217.87786257 69.97648579 226.47275624 75.9638298 234.6875 82.1875 C237.56480978 79.76153293 238.41396786 77.60514172 239.375 74 C239.75205078 72.64841797 239.75205078 72.64841797 240.13671875 71.26953125 C241.33845765 64.54490721 240.65487519 58.70277235 238.9375 52.1875 C238.75993164 51.49269531 238.58236328 50.79789063 238.39941406 50.08203125 C237.05224025 45.03427279 235.31225065 40.68707255 232.6875 36.1875 C230.19541264 36.1875 229.07708521 36.94849766 226.90625 38.1640625 Z M179.6875 43.1875 C178.12477811 47.58003773 178.12477811 47.58003773 177.6875 52.1875 C181.29742379 51.53164811 181.29742379 51.53164811 184.6875 50.1875 C183.43773244 46.53433329 183.01651247 45.40684164 179.6875 43.1875 Z M185.0625 60.1875 C183.87398437 60.744375 182.68546875 61.30125 181.4609375 61.875 C180.54570312 62.308125 179.63046875 62.74125 178.6875 63.1875 C180.35159511 74.86100298 184.88481673 84.18506066 193.6875 92.1875 C200.15984733 96.73699463 206.9836516 97.8075339 214.6875 96.5 C219.49434918 95.40787198 223.42991758 93.66463886 227.6875 91.1875 C228.1825 90.1975 228.1825 90.1975 228.6875 89.1875 C228.03265625 88.73761719 227.3778125 88.28773438 226.703125 87.82421875 C215.44974831 79.89281343 203.12741255 70.14130613 195.06640625 58.93359375 C194.61136719 58.35738281 194.15632813 57.78117187 193.6875 57.1875 C190.46297916 57.1875 187.95296987 58.82727889 185.0625 60.1875 Z " fill="#000000" transform="translate(2886.3125,2436.8125)"/>
<path d="M0 0 C3.50474623 2.99363741 4.7998174 4.89899572 5.625 9.4375 C5.28831888 15.03075083 3.06617532 20.37288103 1.19140625 25.609375 C0.3228125 28.08130737 -0.43936792 30.44815741 -1 33 C-0.3915625 32.46632813 0.216875 31.93265625 0.84375 31.3828125 C13.19820958 20.88152186 34.30514895 3.93671764 51 3.8125 C52.299375 3.79123047 52.299375 3.79123047 53.625 3.76953125 C56 4 56 4 59 6 C60.56012206 16.74750755 54.38568082 24.85331704 48.875 33.625 C43.05174958 42.83275077 43.05174958 42.83275077 40.9375 53.3125 C42.78481316 57.98511565 45.6883182 60.26217899 50 62.6875 C88.65978025 77.16435388 141.54559114 57.12878682 176.52978516 41.27441406 C181.31091407 39.11079362 185.90543147 37.27538446 191 36 C191.061875 35.030625 191.12375 34.06125 191.1875 33.0625 C192.29578449 25.44304411 197.38912456 18.11977037 203 13 C214.3651552 4.62878517 226.1921386 2.56594911 240 4 C244.75403766 5.53026963 247.70921016 8.16382649 250.5 12.25 C253.4664538 18.39479717 252.45215538 24.25689029 250.4375 30.5625 C248.25308236 36.06969377 245.2309349 39.91309693 241 44 C240.47664063 44.54398438 239.95328125 45.08796875 239.4140625 45.6484375 C231.86620526 52.90174421 221.44394762 55.84892367 211.25 56.5625 C210.07953125 56.64628906 208.9090625 56.73007813 207.703125 56.81640625 C206.81109375 56.87699219 205.9190625 56.93757813 205 57 C210.97930019 65.37102026 219.20377533 69.55954725 229.203125 71.53125 C274.50634447 77.12424006 321.0778289 55.10949692 360.7421875 35.92578125 C363 35 363 35 366 35 C369.0274505 40.32831289 369.0274505 40.32831289 368.91723633 43.02514648 C367.5497077 45.96950077 365.68143423 46.50914629 362.76171875 47.84765625 C361.08795166 48.62363159 361.08795166 48.62363159 359.38037109 49.4152832 C358.14991079 49.96546772 356.91893897 50.51450946 355.6875 51.0625 C354.41737458 51.63803135 353.14735659 52.21379984 351.87744141 52.78979492 C324.93812638 64.91767901 297.12344857 75.54678284 268 81 C266.865625 81.22429688 265.73125 81.44859375 264.5625 81.6796875 C243.64164685 85.28162684 222.39742911 84.39418624 204.1328125 72.81640625 C196.20842541 66.88338068 192.24233327 57.3190548 190 48 C189.33919434 48.28085449 188.67838867 48.56170898 187.99755859 48.85107422 C159.07796886 61.06817597 129.38068088 72.29802667 98 76 C97.07058594 76.11085938 96.14117188 76.22171875 95.18359375 76.3359375 C76.48379271 78.21863856 53.56671008 79.26380808 37.5 68.125 C33.02115485 64.45216379 31.13375371 60.582183 30.0625 54.9375 C28.93743803 40.3116944 39.63986008 26.72520365 47 15 C26.76450804 25.97213342 7.87832203 38.25712873 -9 54 C-10.28686323 55.1304914 -11.5783996 56.25568986 -12.875 57.375 C-18.349264 62.13963719 -23.66394884 67.08193952 -29 72 C-31.31 70.02 -33.62 68.04 -36 66 C-34.10475628 62.20951255 -32.08025311 59.47543228 -29.4375 56.1875 C-23.92961916 49.17000732 -19.3821096 41.75733305 -15 34 C-14.62536621 33.34644531 -14.25073242 32.69289063 -13.86474609 32.01953125 C-9.7905943 24.87792724 -6.15961486 18.26225586 -5 10 C-25.78531062 12.42056782 -46.38679003 25.01953412 -65.21484375 33.83984375 C-163.6993133 79.86313644 -163.6993133 79.86313644 -203.8125 80.3125 C-205.08963867 80.35600586 -205.08963867 80.35600586 -206.39257812 80.40039062 C-212.6642597 80.46248648 -217.58413898 79.22863136 -223 76 C-226.60000484 72.39999516 -228.73237549 68.56211115 -229.265625 63.45703125 C-229.22796892 57.08373985 -228.50490276 51.19428725 -227 45 C-227.83660156 45.75023438 -228.67320313 46.50046875 -229.53515625 47.2734375 C-257.73392824 72.21109914 -257.73392824 72.21109914 -274.83984375 73.1328125 C-277.99335954 72.93892545 -279.67073859 72.11751037 -282 70 C-286.01398618 64.40909067 -286.69018393 58.78352209 -286 52 C-283.05366884 37.80081369 -275.14970461 26.89237617 -263.625 18.2109375 C-255.40653846 12.86366926 -246.13653249 9.94799911 -236.31640625 11.4296875 C-229.3383256 13.14773096 -225.189059 16.24004388 -221 22 C-217.23232234 20.55089321 -215.13755081 18.13242988 -212.5625 15.14453125 C-211 14 -211 14 -208.984375 14.1953125 C-206.23116121 15.31177321 -204.23739283 17.07335617 -202 19 C-203.55921231 23.22186719 -205.63706639 27.07446282 -207.8125 31 C-212.74300172 40.05773832 -218.03676081 50.06046969 -218.25 60.5625 C-218.27578125 61.32691406 -218.3015625 62.09132813 -218.328125 62.87890625 C-217.91444153 65.55307438 -217.10419412 66.35130202 -215 68 C-191.11631202 78.61497243 -148.29751538 56.28212814 -125.56521606 47.56152344 C-106.65641828 40.22692781 -88.18543981 31.98759349 -69.81762695 23.40258789 C-56.91982646 17.37679725 -44.02260969 11.37870081 -30.8125 6.0625 C-29.87204834 5.6804541 -28.93159668 5.2984082 -27.96264648 4.90478516 C-8.78924368 -2.62135338 -8.78924368 -2.62135338 0 0 Z M205 26 C201.87035905 30.53884392 199.89491 35.43023006 200 41 C202.38969779 44.43519057 204.14531566 45.72650101 208.125 47 C218.10193959 47 227.50741738 43.04066126 234.8515625 36.30078125 C239.04712432 31.70219749 241.5812076 27.05120181 242.4375 20.8125 C241.87278321 17.18217779 240.88017408 16.23908787 238 14 C224.71703823 11.72483274 213.81632832 16.12211378 205 26 Z M-267.296875 35.68359375 C-272.80665003 42.93276856 -276.90693079 49.56791982 -276 59 C-275.37393625 60.35287339 -274.71402992 61.69141928 -274 63 C-255.95147511 58.88916461 -241.16578123 44.38658194 -228 32 C-229.65892091 27.37982774 -231.71785876 24.48917342 -236 22 C-248.31972421 18.45024896 -259.57718003 26.66415422 -267.296875 35.68359375 Z " fill="#000000" transform="translate(1734,2464)"/>
</svg>
