<?xml version="1.0" encoding="UTF-8"?>
<svg version="1.1" xmlns="http://www.w3.org/2000/svg" width="1413" height="1549">
<path d="M0 0 C5.36806359 4.29265853 7.90557229 10.0689088 10.9375 16.125 C11.94556253 18.10730619 12.9546752 20.0890787 13.96484375 22.0703125 C14.46363037 23.05016113 14.96241699 24.03000977 15.47631836 25.03955078 C24.93418607 43.41578918 37.89643068 62.44821534 57 72 C61.35831967 72.58264982 65.7431965 72.89323521 70.125 73.25 C71.33671875 73.36601563 72.5484375 73.48203125 73.796875 73.6015625 C80.71275643 74.15905185 85.83208163 74.36563227 92 71 C99.06824414 63.67729907 101.11992884 52.12554399 103.21484375 42.48828125 C103.42810303 41.5127832 103.6413623 40.53728516 103.86108398 39.53222656 C104.27939461 37.58788934 104.68439004 35.64062818 105.07446289 33.69042969 C106.43519433 27.26078806 107.99768157 22.63840104 113.0625 18.1875 C116.08729143 16.33359558 118.7668426 15.80319928 122.25 15.6875 C123.34054687 15.63142578 123.34054687 15.63142578 124.453125 15.57421875 C128.20453876 16.20137228 131.15156104 17.5216707 134 20 C135.73647501 22.76313673 136.78440783 25.68396683 137.875 28.75 C143.63934319 43.55986259 151.52063869 56.30272841 161 69 C161.60585938 69.87785156 162.21171875 70.75570312 162.8359375 71.66015625 C169.9033761 81.59770489 180.36613102 85.09887033 191.24633789 89.68359375 C206.92795476 96.30927556 219.60697981 105.32602876 232 117 C232.65226562 117.5878125 233.30453125 118.175625 233.9765625 118.78125 C246.16573984 130.21800898 254.87226038 145.01190466 262.9453125 159.48828125 C268.81448134 169.97912352 275.5081415 179.76565704 282.52734375 189.515625 C291.07663944 201.46927572 296.30702798 212.06765289 295 227 C293.5965463 232.83196821 291.40113996 238.22962954 288.8125 243.625 C286.05598852 249.66307277 285.36537274 255.28016889 286.875 261.75 C289.81717245 266.24979316 293.40468182 268.34067235 298 271 C299.6886418 271.9980707 301.37614246 272.99807461 303.0625 274 C303.90167969 274.495 304.74085937 274.99 305.60546875 275.5 C307.82172044 276.8883208 309.83001001 278.37416945 311.875 280 C321.47311589 287.2456365 331.8705059 290.37651652 343.37109375 293.37670898 C357.26048191 297.12419348 357.26048191 297.12419348 361.37792969 302.94946289 C366.00798707 311.09046931 365.14466157 320.91933464 365.12939453 329.98681641 C365.13114685 331.27247498 365.13289917 332.55813354 365.13470459 333.88275146 C365.13924178 337.39138 365.13750397 340.89997894 365.1343255 344.40860796 C365.13177941 348.09893398 365.13414598 351.78925761 365.13571167 355.47958374 C365.13752819 361.68154348 365.13514207 367.88349129 365.13037109 374.08544922 C365.12494389 381.22216714 365.12668198 388.35885642 365.1321975 395.49557364 C365.13676067 401.64962081 365.13736317 407.80365944 365.13475883 413.95770776 C365.13321173 417.62115914 365.13295846 421.28459715 365.13629532 424.94804764 C365.13976592 429.04432063 365.13493235 433.14054568 365.12939453 437.23681641 C365.13243088 439.02196152 365.13243088 439.02196152 365.13552856 440.84317017 C365.10748963 452.13084281 364.93314222 463.44735156 361.875 474.375 C361.65618164 475.17317139 361.43736328 475.97134277 361.21191406 476.79370117 C356.94073129 491.717664 350.0026406 510.81810894 336.04296875 519.08203125 C332.17357281 520.82066996 328.5794971 521.15927404 324.359375 521.31640625 C322.75449219 521.37924805 322.75449219 521.37924805 321.1171875 521.44335938 C319.45042969 521.50233398 319.45042969 521.50233398 317.75 521.5625 C316.06003906 521.62727539 316.06003906 521.62727539 314.3359375 521.69335938 C311.55741046 521.79932015 308.77879609 521.90139142 306 522 C306.33 522.66 306.66 523.32 307 524 C307.73820137 529.08538723 308.11681118 534.1127168 308.25 539.25 C308.27578125 540.22453125 308.3015625 541.1990625 308.328125 542.203125 C307.93898575 545.52007381 306.97315562 547.32609752 305 550 C299.90966286 553.39355809 293.78362138 552.34568423 287.8125 552.3125 C287.1304953 552.31034485 286.4484906 552.3081897 285.74581909 552.30596924 C261.66382947 552.1831436 241.11894503 546.50837214 223 530 C222.19965332 530.55977539 221.39930664 531.11955078 220.57470703 531.69628906 C211.16134512 538.10581404 201.42329359 542.53902114 190.875 546.75 C189.30546002 547.38802174 187.7364469 548.02734111 186.16796875 548.66796875 C184.63026998 549.29442217 183.09251047 549.92072652 181.5546875 550.546875 C180.44187408 551.00012146 180.44187408 551.00012146 179.30657959 551.46252441 C176.01251622 552.79898191 172.71698968 554.1060428 169.38769531 555.35351562 C163.378039 557.65884111 159.60273423 559.41576195 156 565 C155.54431641 565.69689941 155.08863281 566.39379883 154.61914062 567.11181641 C153.10507018 569.48142665 151.67267106 571.88705675 150.25 574.3125 C149.75628906 575.11623047 149.26257813 575.91996094 148.75390625 576.74804688 C145.08097159 583.00209864 142.8220871 588.41820039 144.68432617 595.66186523 C146.8610422 601.92081591 149.72734321 607.8930869 152.5625 613.875 C173.70000258 659.66831542 186.50251617 708.76543026 194.81884766 758.35205078 C196.54193882 768.44716515 198.26398997 777.80718854 203 787 C203.44875488 787.90669434 203.89750977 788.81338867 204.35986328 789.74755859 C205.77745307 792.57434422 207.2315216 795.38032591 208.6875 798.1875 C233.67464112 847.42391212 243.92028725 894.6132643 231.77563477 948.69750977 C227.70680491 967.0422264 226.84577446 985.626938 226.796875 1004.37109375 C226.79263393 1005.49704295 226.79263393 1005.49704295 226.78830719 1006.6457386 C226.77345935 1010.62214613 226.7641406 1014.59851876 226.75976562 1018.57495117 C226.75539508 1021.80065305 226.74153782 1025.02608534 226.71875 1028.25170898 C226.45780177 1066.14592618 232.8888509 1099.4880375 244.10955811 1135.76473999 C245.22124331 1139.3591007 246.3238645 1142.95614025 247.42431641 1146.55395508 C248.90988035 1151.40936735 250.3981901 1156.26392092 251.88916016 1161.11767578 C254.65409688 1170.12503538 257.39499722 1179.13953466 260.11270142 1188.16125488 C260.84913147 1190.60177212 261.59077573 1193.04066013 262.33276367 1195.47949219 C264.88774599 1203.92985985 267.1596607 1212.35984293 269 1221 C288.08737191 1209.32301954 306.64825252 1196.79731033 325 1184 C325.66483398 1183.53706543 326.32966797 1183.07413086 327.01464844 1182.59716797 C345.71011702 1169.55617515 363.92760247 1155.88790757 382 1142 C382.79325684 1141.39124023 383.58651367 1140.78248047 384.40380859 1140.15527344 C398.39256034 1129.40463149 412.03902842 1118.26791419 425.4699707 1106.82910156 C428.77239971 1104.02024634 432.12141696 1101.2789976 435.5 1098.5625 C440.88573414 1094.18315122 445.94816799 1089.49955162 451.01953125 1084.765625 C453.26598689 1082.67089076 455.54473428 1080.62670331 457.875 1078.625 C463.70890167 1073.5705758 469.29187258 1068.23644465 474.91748047 1062.953125 C477.0154429 1060.98551662 479.1186242 1059.02361484 481.22265625 1057.0625 C498.47341429 1041.08711955 498.47341429 1041.08711955 514.3984375 1023.8203125 C516.34037422 1021.61313564 518.40738124 1019.56462386 520.5 1017.5 C523.87100065 1014.16879193 527.0451403 1010.74888372 530.12890625 1007.15234375 C532.33079829 1004.61947838 534.60195826 1002.15667478 536.875 999.6875 C541.80268347 994.29123314 546.43262187 988.70370651 551 983 C551.99 983.495 551.99 983.495 553 984 C539.17721519 1007.70886076 539.17721519 1007.70886076 532 1018 C530.917882 1019.56895059 529.83585972 1021.1379672 528.75390625 1022.70703125 C518.60008127 1037.37613267 507.79599068 1051.36779196 496.49707031 1065.16650391 C495.16580047 1066.79694039 493.84393831 1068.43504819 492.5234375 1070.07421875 C487.96900522 1075.71495555 483.2283626 1081.12902781 478.3203125 1086.46484375 C476.42718797 1088.53325758 474.57748296 1090.62405876 472.75 1092.75 C462.43218826 1104.58466984 451.39801761 1115.76523466 440.28417969 1126.84619141 C438.10233092 1129.02261269 435.92597087 1131.20442239 433.75 1133.38671875 C432.33625848 1134.79980037 430.92220726 1136.21257223 429.5078125 1137.625 C428.87118683 1138.2636499 428.23456116 1138.9022998 427.5786438 1139.56030273 C423.78528839 1143.33421205 419.88051504 1146.92497371 415.82365417 1150.41445923 C412.86723206 1152.98486313 410.03667796 1155.68712732 407.1875 1158.375 C402.14434182 1163.09873109 396.97309024 1167.56834291 391.578125 1171.890625 C388.9757371 1174.01985146 386.48424498 1176.23449357 384 1178.5 C378.8249007 1183.20463572 373.43858803 1187.60518139 368 1192 C366.78057483 1192.99917657 365.56186423 1193.99922565 364.34375 1195 C354.72544038 1202.88711 344.92606326 1210.50499874 335 1218 C334.33500488 1218.5038623 333.67000977 1219.00772461 332.98486328 1219.52685547 C266.75020507 1269.69671119 195.64043582 1313.54316692 121.78955078 1351.55664062 C118.39131912 1353.31494148 115.0094881 1355.10292902 111.62963867 1356.89624023 C93.27468813 1366.62972101 74.63633773 1375.69325229 55.75308228 1384.35507202 C51.82992311 1386.15521554 47.9134395 1387.96904638 44.00106812 1389.79251099 C-17.862617 1418.60614934 -81.8185803 1443.56890813 -146.73242188 1464.60986328 C-150.30738089 1465.7705284 -153.87418502 1466.95431376 -157.43894958 1468.14587402 C-218.72741294 1488.62462548 -281.66400967 1505.16158277 -345 1518 C-345.90161865 1518.1828656 -346.8032373 1518.3657312 -347.73217773 1518.55413818 C-420.98062394 1533.35567857 -495.28840094 1543.79176214 -570 1547 C-571.89927246 1547.08459473 -571.89927246 1547.08459473 -573.83691406 1547.17089844 C-659.66802795 1550.8422369 -747.26607457 1546.18111515 -859 1516 C-859.33 1515.34 -859.66 1514.68 -860 1514 C-859.07292236 1514.10546143 -858.14584473 1514.21092285 -857.19067383 1514.31958008 C-801.84802279 1520.58433847 -746.68086821 1523.05872089 -691 1524 C-690.94844361 1517.65441441 -690.91391604 1511.30888454 -690.89013672 1504.96313477 C-690.88020267 1502.81337466 -690.86665086 1500.6636276 -690.84912109 1498.51391602 C-690.71053044 1481.05556963 -691.51376557 1464.23708039 -695.125 1447.125 C-696.85259752 1438.32333736 -697.01726621 1430.13012682 -696.6875 1421.1875 C-696.26216521 1407.96652876 -698.84210951 1396.63515117 -702.79956055 1384.11010742 C-706.43514852 1372.3639738 -708.91128245 1358.74373865 -703.31640625 1347.18359375 C-700.26494305 1342.12196784 -696.67309978 1337.73227694 -692.5703125 1333.484375 C-681.58579699 1322.06582088 -673.55821865 1306.69546973 -673.86889648 1290.49438477 C-674.12181905 1285.68226205 -674.68942023 1280.90945863 -675.25 1276.125 C-676.25063465 1267.51572233 -677.10183858 1258.93751611 -677.66796875 1250.2890625 C-679.26881753 1227.08116602 -683.2647637 1205.4111203 -689.36029053 1182.95677185 C-689.61264465 1182.02615433 -689.86499878 1181.0955368 -690.125 1180.13671875 C-690.37388977 1179.2198378 -690.62277954 1178.30295685 -690.87921143 1177.35829163 C-694.81724037 1162.52787874 -697.30425904 1147.24381877 -699 1132 C-699.16822266 1130.53433594 -699.16822266 1130.53433594 -699.33984375 1129.0390625 C-702.94233187 1091.43500843 -696.2934611 1052.81593317 -689.67578125 1015.8515625 C-689.47186768 1014.70529892 -689.2679541 1013.55903534 -689.05786133 1012.3780365 C-688.04263331 1006.67911263 -687.01049965 1000.98426378 -685.94677734 995.29418945 C-682.94056949 978.87176268 -681.21822788 963.6591205 -685.3125 947.25 C-687.90104739 935.8944417 -689.69785802 924.57080932 -691 913 C-691.13277344 911.82179688 -691.26554688 910.64359375 -691.40234375 909.4296875 C-696.00801231 858.07332851 -688.47764053 784.08874003 -654.5 742.75 C-653.42849817 741.49358369 -652.35559988 740.23835684 -651.28125 738.984375 C-644.14245421 730.45843511 -639.22920367 721.72783673 -634.75 711.5625 C-624.22038575 688.22466037 -611.04802092 667.14238738 -594 648 C-593.54238281 647.48066895 -593.08476563 646.96133789 -592.61328125 646.42626953 C-554.01645587 602.73455509 -500.25593262 583.54470074 -443.875 575.75 C-442.78251953 575.59869629 -441.69003906 575.44739258 -440.56445312 575.29150391 C-421.8476598 572.90195369 -403.08373108 571.8600475 -384.2265625 571.76171875 C-383.46765591 571.7571806 -382.70874931 571.75264244 -381.92684555 571.74796677 C-374.88499199 571.70745702 -367.84323988 571.68213529 -360.80126953 571.69458008 C-356.89248327 571.70042788 -352.98442416 571.68224768 -349.07578659 571.64869118 C-347.60624601 571.64078102 -346.13662528 571.64195428 -344.66710281 571.65271568 C-342.63308233 571.66703889 -340.59890987 571.64810022 -338.56494141 571.62768555 C-337.41393951 571.62705612 -336.26293762 571.6264267 -335.07705688 571.6257782 C-331.01996415 570.80069102 -329.5907273 569.16621413 -327 566 C-325.672807 563.93309079 -325.672807 563.93309079 -324.73828125 561.74609375 C-324.15808228 560.49372925 -324.15808228 560.49372925 -323.56616211 559.21606445 C-323.15245361 558.29913818 -322.73874512 557.38221191 -322.3125 556.4375 C-321.34441589 554.35524739 -320.3728172 552.27462656 -319.3984375 550.1953125 C-318.86186523 549.0496582 -318.32529297 547.90400391 -317.77246094 546.72363281 C-314.44788144 539.69464261 -310.92638511 532.76086428 -307.4375 525.8125 C-306.66623701 524.27381521 -305.89507903 522.73507779 -305.12402344 521.19628906 C-302.35287467 515.66785593 -299.57758575 510.14150369 -296.80236816 504.6151123 C-294.05338021 499.14042576 -291.30632974 493.66477375 -288.5625 488.1875 C-288.18376236 487.43154541 -287.80502472 486.67559082 -287.41481018 485.89672852 C-282.37448096 475.82922258 -277.42217137 465.72607321 -272.59753418 455.55297852 C-269.0142108 447.99856711 -265.30160966 440.51503757 -261.53457642 433.05084229 C-256.35842426 422.79014858 -251.23352274 412.51104083 -246.3125 402.125 C-230.38241547 368.64563852 -213.23146345 335.27993241 -190.890625 305.5234375 C-189.11722563 303.1564623 -187.40530938 300.75289227 -185.70410156 298.33374023 C-178.4261565 288.00561017 -170.69249284 278.02051103 -163 268 C-162.04537562 266.75275515 -161.09092325 265.50537861 -160.13671875 264.2578125 C-152.76545578 254.63211319 -145.35515294 245.0286903 -137.625 235.6875 C-115.10860905 208.33505411 -115.10860905 208.33505411 -107.875 174.375 C-107.8757251 173.12626099 -107.8757251 173.12626099 -107.87646484 171.85229492 C-107.90410396 166.78051732 -108.11275127 161.75016084 -108.46289062 156.69116211 C-110.15996227 131.78970271 -103.74042383 109.91831525 -87.4765625 90.83203125 C-86.25066406 89.43017578 -86.25066406 89.43017578 -85 88 C-83.03764808 85.73262286 -81.08099064 83.4603655 -79.125 81.1875 C-78.61541748 80.59694824 -78.10583496 80.00639648 -77.58081055 79.39794922 C-73.65820951 74.82911964 -69.90972989 70.14560157 -66.21533203 65.39135742 C-62.70424962 60.87684 -59.11778942 56.42936052 -55.5 52 C-51.45000006 47.03778437 -47.44300286 42.04764895 -43.5 37 C-41.6693661 34.66453668 -39.83573372 32.33145666 -38 30 C-37.484375 29.34467285 -36.96875 28.6893457 -36.4375 28.01416016 C-11.45855496 -3.60732286 -11.45855496 -3.60732286 0 0 Z M170.21459961 220.46875 C169.01346779 220.94924805 169.01346779 220.94924805 167.78807068 221.43945312 C166.91828079 221.78943359 166.04849091 222.13941406 165.15234375 222.5 C164.2659169 222.85513672 163.37949005 223.21027344 162.46620178 223.57617188 C159.62265278 224.71583851 156.78006995 225.85789387 153.9375 227 C152.01503691 227.77099033 150.09251169 228.54182574 148.16992188 229.3125 C143.4458905 231.20653349 138.72272455 233.10271046 134 235 C134.7734375 235.95608154 135.546875 236.91216309 136.34375 237.8972168 C136.77880859 238.43501266 137.21386719 238.97280853 137.66210938 239.52690125 C139.52163478 241.57435154 141.50761112 242.64808707 144 243.8125 C144.825 244.21082031 145.65 244.60914063 146.5 245.01953125 C157.30259484 249.25617391 168.45031961 246.89426474 179 243 C180.69464467 242.04818215 182.37300882 241.06333319 184 240 C182.92784001 236.78352002 181.57997166 234.38217653 179.5 231.75 C176.55286564 227.81179391 175.72880727 223.79707475 175 219 C173.28262783 219 171.79476293 219.83470327 170.21459961 220.46875 Z M-511 1024 C-511.11464174 1026.02533732 -511.2217599 1028.051403 -511.28930664 1030.07885742 C-512.50062526 1066.06985993 -529.55385782 1098.48598614 -546.18359375 1129.65625 C-547.12512013 1131.4360615 -548.06372302 1133.21742144 -549 1135 C-549.57210205 1136.08893555 -550.1442041 1137.17787109 -550.73364258 1138.29980469 C-554.7390112 1146.093744 -558.06663058 1153.91792776 -560.8125 1162.25 C-561.01799469 1162.86795441 -561.22348938 1163.48590881 -561.43521118 1164.12258911 C-567.04178027 1181.11228121 -570.92121914 1198.55935733 -574.86132812 1215.99414062 C-575.90218458 1220.59232114 -576.98473759 1225.17970593 -578.078125 1229.765625 C-580.74548318 1241.03279635 -583.20946428 1252.17225996 -584.5 1263.6875 C-586.70455939 1283.34117319 -592.38530869 1302.27039375 -599.19775391 1320.77441406 C-606.64293633 1341.42879112 -609.72986097 1360.94939954 -606.5 1382.8125 C-604.57418777 1396.18443389 -603.15932818 1407.70273488 -608.90625 1420.42578125 C-611.64699277 1429.3821371 -609.8045595 1439.88723572 -609.23046875 1449.1171875 C-609.14792309 1450.46363006 -609.06543017 1451.81007585 -608.98298645 1453.15652466 C-608.80979577 1455.96877172 -608.63365544 1458.7808171 -608.45581055 1461.59277344 C-608.27685095 1464.4293841 -608.10340892 1467.2662413 -607.93530273 1470.10351562 C-606.9619615 1486.51275739 -605.7142767 1502.76924299 -603 1519 C-588.43745091 1518.47918739 -574.02574084 1517.0579022 -559.55029297 1515.41601562 C-555.81949164 1514.99371687 -552.08759454 1514.58228727 -548.35546875 1514.171875 C-545.98430419 1513.90688282 -543.61320762 1513.64128147 -541.2421875 1513.375 C-540.12576874 1513.25205566 -539.00934998 1513.12911133 -537.85910034 1513.00244141 C-536.83938141 1512.88562012 -535.81966248 1512.76879883 -534.76904297 1512.6484375 C-533.86926727 1512.54708496 -532.96949158 1512.44573242 -532.04244995 1512.34130859 C-530.01156409 1512.20519381 -530.01156409 1512.20519381 -529 1511 C-528.98448207 1509.26368764 -529.04314867 1507.52668236 -529.13012695 1505.79248047 C-529.21074875 1504.10393951 -529.21074875 1504.10393951 -529.29299927 1502.38128662 C-529.38966385 1500.51805756 -529.38966385 1500.51805756 -529.48828125 1498.6171875 C-529.58439727 1496.63354928 -529.68050693 1494.64991073 -529.77635956 1492.66625977 C-529.88005999 1490.53768758 -529.9861611 1488.40924638 -530.09286499 1486.28082275 C-530.46372048 1478.87017201 -530.81359771 1471.45851311 -531.1640625 1464.046875 C-531.19980314 1463.2939983 -531.23554379 1462.5411216 -531.27236748 1461.76543045 C-532.00886725 1446.22201697 -532.62694258 1430.67581838 -533.1875 1415.125 C-533.22992828 1413.97159119 -533.27235657 1412.81818237 -533.31607056 1411.62982178 C-533.43590607 1408.36007019 -533.55264092 1405.09022589 -533.66796875 1401.8203125 C-533.71931473 1400.41026947 -533.71931473 1400.41026947 -533.771698 1398.97174072 C-534.08413458 1389.81471523 -534.31824088 1380.78812415 -533.08984375 1371.69140625 C-532.90270002 1370.1868856 -532.71586032 1368.6823271 -532.52929688 1367.17773438 C-532.23527801 1364.86940476 -531.93739405 1362.56169551 -531.63354492 1360.25463867 C-530.1256472 1348.69900521 -528.96644177 1337.69132918 -532.9375 1326.4375 C-537.41550786 1312.66151946 -540.75863884 1293.47524382 -533.9296875 1279.8671875 C-531.45392404 1275.64749003 -528.59007391 1272.33960363 -525 1269 C-519.73635564 1263.86989419 -514.77046307 1258.58934495 -510 1253 C-509.19949219 1252.08863281 -508.39898437 1251.17726563 -507.57421875 1250.23828125 C-476.13050266 1214.87329615 -476.13050266 1214.87329615 -461.21875 1173.18164062 C-461.2703125 1172.44107422 -461.321875 1171.70050781 -461.375 1170.9375 C-461.41882813 1170.22400391 -461.46265625 1169.51050781 -461.5078125 1168.77539062 C-461.75629418 1164.91357122 -462.09592682 1161.07651591 -462.5234375 1157.23046875 C-463.13040103 1151.28073455 -463.23193193 1145.3524468 -463.25 1139.375 C-463.25394775 1138.23579102 -463.25789551 1137.09658203 -463.26196289 1135.92285156 C-463.20784192 1128.0468561 -462.43474587 1120.80989876 -460.55859375 1113.171875 C-459.44818091 1106.86659369 -461.59397914 1102.48902305 -464.4375 1097 C-474.53564589 1076.37810695 -480.0760473 1054.13823758 -484.43359375 1031.71923828 C-485.12214492 1028.41359909 -485.99829103 1025.22309135 -487 1022 C-499.84425442 1020.92648745 -499.84425442 1020.92648745 -511 1024 Z M19.16162109 1086.41601562 C16.10443791 1088.65624654 13.02415319 1090.86313063 9.9375 1093.0625 C9.10303345 1093.65792603 9.10303345 1093.65792603 8.25170898 1094.26538086 C3.02083093 1097.99358938 -2.22445349 1101.70149168 -7.47729492 1105.39868164 C-11.05955806 1107.92021853 -14.63426227 1110.45093308 -18.19140625 1113.0078125 C-40.69170927 1129.14184248 -62.78751892 1142.6627173 -90 1149 C-90.90395508 1149.21076172 -91.80791016 1149.42152344 -92.73925781 1149.63867188 C-117.43188172 1155.16802819 -142.88766462 1157.22124314 -168 1160 C-167.92563721 1161.29478271 -167.85127441 1162.58956543 -167.7746582 1163.92358398 C-167.28892693 1172.86384829 -166.90628819 1181.76803359 -167.04296875 1190.72265625 C-167.05321075 1191.49773529 -167.06345276 1192.27281433 -167.07400513 1193.07138062 C-167.11859463 1196.19472275 -167.16891081 1199.31747891 -167.24682617 1202.44018555 C-167.4585342 1211.4456347 -167.33333196 1219.10364917 -163.94165039 1227.62109375 C-159.27161581 1239.41907585 -162.21395438 1254.10739387 -163.53787231 1266.35766602 C-165.13542301 1281.36494966 -166.19759867 1296.36565733 -166.828125 1311.44140625 C-166.85994558 1312.20188704 -166.89176617 1312.96236782 -166.92455101 1313.74589348 C-167.24118301 1321.4010215 -167.5322911 1329.05687516 -167.79599285 1336.71400452 C-168.55040739 1358.4584583 -169.37477625 1380.28080736 -174.25 1401.5625 C-176.31257421 1410.90643137 -176.05269524 1419.52574285 -175 1429 C-168.84383546 1427.75189684 -162.94768128 1426.12032682 -157.0078125 1424.0859375 C-156.16176453 1423.79980087 -155.31571655 1423.51366425 -154.44403076 1423.21885681 C-151.66882655 1422.27720559 -148.89663926 1421.32709005 -146.125 1420.375 C-145.1583844 1420.04398285 -144.1917688 1419.7129657 -143.19586182 1419.37191772 C-76.48299208 1396.49236542 -10.99696729 1369.80939677 52.90551758 1339.97723389 C55.06698425 1338.9687468 57.22966626 1337.96290302 59.39257812 1336.95751953 C77.40379403 1328.58033304 95.29956251 1320.01906648 113 1311 C112.6626142 1305.02967062 112.30752975 1299.06071066 111.93798828 1293.09228516 C111.81529139 1291.07400092 111.69692824 1289.05544722 111.58349609 1287.03662109 C110.34990522 1265.19223754 106.74045961 1244.19394826 101.62722778 1222.94320679 C97.15830584 1204.27837398 93.17937931 1185.53498589 89.5625 1166.6875 C89.34086182 1165.53264099 89.11922363 1164.37778198 88.89086914 1163.18792725 C86.05661537 1148.35274907 83.35732685 1133.49459132 80.7109375 1118.625 C80.57361898 1117.8542042 80.43630047 1117.08340839 80.29482079 1116.28925514 C78.9397036 1108.68100314 77.5893934 1101.07200691 76.26350403 1093.458601 C75.77312929 1090.64803029 75.27805765 1087.83829893 74.78213882 1085.02870178 C74.44201197 1083.09092911 74.10860011 1081.15198158 73.77536011 1079.2130127 C73.57032867 1078.05370239 73.36529724 1076.89439209 73.15405273 1075.69995117 C72.9784935 1074.69050949 72.80293427 1073.68106781 72.62205505 1072.64103699 C72.02983642 1070.12667544 71.35365966 1068.1937012 70 1066 C53.26016919 1057.63008459 31.5037726 1077.34315121 19.16162109 1086.41601562 Z M-316 1163 C-316.32254761 1164.24982666 -316.32254761 1164.24982666 -316.65161133 1165.52490234 C-329.29334825 1213.9091518 -352.51330504 1266.21990172 -397.67675781 1292.72412109 C-403.5254964 1295.93613327 -409.58981802 1298.7845293 -415.64892578 1301.57543945 C-422.48317816 1304.83055868 -427.93329564 1307.92115968 -430.88378906 1315.171875 C-431.64283638 1317.57737782 -432.27157778 1319.98852466 -432.875 1322.4375 C-435.98201119 1333.75071263 -440.67034192 1343.49448934 -446.69921875 1353.5234375 C-447.15393555 1354.28116455 -447.60865234 1355.0388916 -448.07714844 1355.81958008 C-448.95870908 1357.27307929 -449.85317269 1358.71886158 -450.76269531 1360.1550293 C-454.39464562 1366.05946475 -455.4340159 1371.24765116 -454.5625 1378.1875 C-453.26873954 1390.90085281 -453.92710957 1403.78132872 -458 1416 C-459.56850388 1435.92771325 -455.21994236 1456.2583351 -451 1475.625 C-450.7632959 1476.71989746 -450.5265918 1477.81479492 -450.28271484 1478.94287109 C-448.76630549 1485.5934827 -446.70074115 1491.74153661 -444 1498 C-437.15706205 1497.43096422 -430.50321126 1496.45279724 -423.7734375 1495.1015625 C-422.32716225 1494.81613083 -422.32716225 1494.81613083 -420.85166931 1494.52493286 C-417.69143278 1493.89816187 -414.53305359 1493.26267449 -411.375 1492.625 C-410.2752182 1492.40380493 -409.1754364 1492.18260986 -408.04232788 1491.95471191 C-369.04817729 1484.09184255 -330.45161749 1474.77591281 -291.9296875 1464.87109375 C-290.40028282 1464.4796241 -290.40028282 1464.4796241 -288.83998108 1464.08024597 C-284.16486083 1462.87130406 -279.55620634 1461.61363641 -275 1460 C-274.74112658 1451.96917122 -275.51680807 1444.20659706 -276.5625 1436.25 C-276.64924988 1435.5856192 -276.73599976 1434.9212384 -276.82537842 1434.23672485 C-279.71822292 1412.30496447 -284.01157842 1390.60181826 -288.46484375 1368.94140625 C-293.91497877 1342.39475376 -298.84691861 1315.92706475 -302 1289 C-302.08745483 1288.26007813 -302.17490967 1287.52015625 -302.26501465 1286.7578125 C-304.2079907 1270.08395353 -305.04931681 1253.47202209 -305.2578125 1236.6875 C-305.26661375 1236.01221567 -305.275415 1235.33693134 -305.28448296 1234.64118385 C-305.36368142 1228.481094 -305.43991894 1222.32115712 -305.4437561 1216.16049194 C-305.41099658 1195.25370321 -305.41099658 1195.25370321 -310 1175 C-310.39372803 1173.76918701 -310.78745605 1172.53837402 -311.19311523 1171.27026367 C-312.08922288 1168.49748431 -313.02262469 1165.74496894 -314 1163 C-314.66 1163 -315.32 1163 -316 1163 Z " fill="#0D0D19" transform="translate(860,1)"/>
</svg>
